<?xml version="1.0" standalone="no"?>
<!DOCTYPE svg PUBLIC "-//W3C//DTD SVG 1.1//EN" "http://www.w3.org/Graphics/SVG/1.1/DTD/svg11.dtd" >
<svg xmlns="http://www.w3.org/2000/svg" width="100%" height="100%">
<metadata>
Created by FontXChange 20110222 at Mon Apr 20 15:00:32 2015
 By ryder ripps
Ryder Ripps / OKFocus
</metadata>
<defs>
<font id="TimesNewRamen-Regular" horiz-adv-x="1415" >
  <font-face 
    font-family="Times New Ramen"
    font-weight="400"
    font-stretch="normal"
    units-per-em="1000"
    panose-1="0 0 0 0 0 0 0 0 0 0"
    ascent="666"
    descent="-334"
    x-height="516"
    cap-height="800"
    bbox="-127.786 -340 1541 810.071"
    underline-thickness="50"
    underline-position="-50"
    unicode-range="U+000D-221E"
  />
<missing-glyph horiz-adv-x="895" 
 />
    <glyph glyph-name=".notdef" horiz-adv-x="895" 
 />
    <glyph glyph-name="NULL" horiz-adv-x="0" 
 />
    <glyph glyph-name="NULL" horiz-adv-x="0" 
 />
    <glyph glyph-name="nonmarkingreturn" unicode="&#xd;" horiz-adv-x="250" 
 />
    <glyph glyph-name="space" unicode=" " horiz-adv-x="895" 
 />
    <glyph glyph-name="exclam" unicode="!" horiz-adv-x="347" 
d="M273 74h-45q-18 47 -36 87.5t-37 78t-37.5 73.5t-37.5 75l-23.5 47t-23.5 55.5t-20 68.5t-13 87q-2 19 0.5 32.5t5.5 23.5q7 22 25.5 39.5t45.5 31.5q29 14 57 21t56 6q20 -1 39.5 -4t38.5 -23q12 -12 12.5 -33t-7.5 -47q-2 -8 -6 -20l-9 -27q-13 -62 -16 -110.5t-1 -91
t7.5 -81.5t11.5 -82.5t10 -93.5t3 -113zM249 -44q23 0 45.5 -4t44.5 -19q35 -23 23 -54q-14 -34 -66 -56q-55 -24 -108 -23q-20 1 -39.5 3.5t-39.5 19.5q-25 21 -12 56q12 32 55 54q24 13 48.5 18t48.5 5z" />
    <glyph glyph-name="numbersign" unicode="#" horiz-adv-x="1349" 
d="M289 -200q27 11 67.5 26.5t82.5 36t81 46t64 57.5t30 71t-20 85h-187q-14 17 -25 28.5t-30 29.5h205q-54 63 -112 120.5t-112 121.5h-279q-19 17 -30 28t-24 28h301q-26 46 -21 85t30 71t63.5 57.5t81 46t82.5 36t67 26.5h90q-27 -11 -67 -26.5t-82 -36t-81 -46
t-63.5 -57.5t-30 -71t20.5 -85h369q-25 46 -19 85t31.5 71t64.5 58t81.5 46t83 35.5t67.5 26.5h91q-27 -11 -67.5 -26.5t-83 -35.5t-81.5 -46t-64.5 -58t-31 -71t19.5 -85h186q13 -17 24.5 -28t29.5 -28h-202q53 -64 110.5 -121.5t111.5 -120.5h278q19 -18 30.5 -29.5
t25.5 -28.5h-298q25 -46 20 -85t-30 -71t-64 -57.5t-81 -46t-82.5 -36t-67.5 -26.5h-89q27 11 67.5 26.5t82.5 36t81 46t63.5 57.5t29.5 71t-20 85h-371q25 -47 19.5 -85.5t-30.5 -70.5t-64.5 -58t-81.5 -46t-82.5 -35.5t-67.5 -26.5h-91zM648 180h371q-53 63 -110 120.5
t-110 121.5h-373q54 -64 111.5 -121.5t110.5 -120.5z" />
    <glyph glyph-name="dollar" unicode="$" 
d="M464 101h56q36 -42 66 -74t70 -55q39 -23 99 -36t151 -17q33 36 39 71.5t-6.5 69t-38.5 65t-57 59t-62.5 51.5t-54.5 43q-72 16 -144 31.5t-144 33t-142.5 38.5t-138.5 48q-59 23 -99.5 51.5t-53.5 62.5q-14 38 23.5 71.5t121.5 60.5q102 34 209.5 48.5t215.5 19.5
q15 9 28 15.5t26.5 13t30 13t38.5 15.5h82q-22 -9 -38.5 -15.5t-30.5 -13t-27 -13t-28 -15.5q50 -2 89 -4.5t68 -6.5q15 -2 59.5 -13t128.5 -30q-30 -27 -43.5 -49t-15 -42.5t8 -42.5t27.5 -50h-50q-20 25 -35 46t-27.5 39t-25.5 32.5t-28 25.5q-31 23 -82.5 36t-135.5 18
q-37 -26 -51.5 -54t-13.5 -56t15 -55.5t34 -53.5t43.5 -49.5t44.5 -43.5q155 -38 310 -74t307 -86q78 -26 135.5 -57.5t84.5 -69.5q29 -43 -1 -80.5t-115 -69.5q-106 -39 -220 -54.5t-227 -19.5q-18 -12 -33.5 -21.5t-33 -18.5t-40 -18t-53.5 -21h-82q31 12 53.5 21t40.5 18
t33.5 18.5t32.5 21.5q-58 1 -109 4.5t-96 8.5t-91.5 14t-98.5 21q23 26 33 47t9 40.5t-11.5 40t-28.5 46.5zM554 416q-41 47 -65.5 77.5t-31 59t6.5 62.5t47 87q-69 -4 -127 -13.5t-101 -25.5q-43 -17 -66.5 -36.5t-22.5 -43.5q2 -23 24.5 -43.5t64.5 -40.5q84 -40 271 -83z
M988 -81q52 4 93.5 9t72.5 13q44 11 78.5 25.5t57.5 31.5q47 35 27 74q-10 20 -37.5 40t-69.5 37q-88 35 -181.5 57.5t-186.5 44.5q21 -19 49 -41.5t54.5 -48.5t48.5 -54.5t31 -59.5t1.5 -63t-38.5 -65z" />
    <glyph glyph-name="percent" unicode="%" horiz-adv-x="1435" 
d="M444 800q22 0 28 -5t1 -14.5t-18.5 -24.5t-29.5 -34q-34 -38 -44.5 -82.5t8.5 -95.5q11 -30 27.5 -56.5t33.5 -50t31 -43.5t21 -36q27 -66 -49 -66q-54 0 -136 30q-42 15 -87.5 37.5t-92.5 52.5t-82 63t-49 69q-26 72 59 134q42 31 99 54t113 38t99 22.5t68 7.5zM352 761
q-17 0 -53 -10.5t-80 -30.5q-22 -11 -46 -27t-41.5 -37.5t-24.5 -49.5t5 -61q9 -24 24 -45t33.5 -39.5t39 -34t38.5 -28.5q27 -19 54 -33.5t53 -25.5q30 -12 51 -12q30 0 8 36q-8 13 -24.5 31t-35.5 40t-37.5 49t-30.5 58q-13 33 -10.5 61t13.5 51t26.5 41t27.5 32
q17 17 21.5 26t-11.5 9zM1126 800q-75 -28 -140.5 -54.5t-116.5 -56.5t-85 -65.5t-45 -81.5t2 -105.5t57 -136.5q43 -77 57 -136.5t2.5 -105.5t-45.5 -81.5t-84.5 -65.5t-116.5 -56.5t-141 -54.5h-59q75 28 141 54.5t116.5 56.5t84.5 65.5t45.5 81.5t-2.5 105.5t-57 136.5
q-44 77 -57 136.5t-2 105.5t45 81.5t85 65.5t116.5 56.5t140.5 54.5h59zM1089 305q49 0 135 -31q44 -16 90.5 -38.5t92.5 -52.5q45 -30 79 -62.5t46 -68.5q11 -31 2.5 -58t-31.5 -50t-58 -43t-76 -36t-81 -28t-76 -20.5t-65.5 -12.5t-48.5 -4q-24 0 -27.5 7.5t7.5 23.5
t30.5 38t33.5 51q15 29 18.5 62t-10.5 70q-12 37 -34 70l-42 63q-20 31 -31 53.5t-7 36.5q7 30 53 30zM1138 268q-17 0 -18 -9t10 -28q7 -12 24 -29.5t36.5 -40.5t38 -51.5t29.5 -62.5q9 -31 4.5 -57t-15.5 -48t-26 -39t-26 -29q-16 -17 -20.5 -26t12.5 -9q15 0 47.5 9.5
t73.5 28.5q27 13 53 30t44 39t25.5 48t-2.5 57q-11 33 -33 60.5t-49 50.5t-56 40.5t-53 30.5q-33 18 -58 26.5t-41 8.5z" />
    <glyph glyph-name="ampersand" unicode="&#x26;" horiz-adv-x="1215" 
d="M538 438h300l13.5 -13.5t14.5 -13.5q-58 -5 -61 -27q-2 -11 19 -44t61 -90t54.5 -109t-12.5 -101q41 -36 59 -62t32 -40q14 -15 30.5 -22t42.5 -7q25 0 53 6t55 20q28 14 49.5 33t28.5 45q8 -6 12.5 -9.5t12.5 -9.5q-11 -25 -34 -46.5t-54 -40t-67.5 -33.5t-73.5 -27
q-75 -23 -139.5 -35t-103.5 -12q-29 0 -38.5 7.5t-5.5 23.5q2 8 6.5 18.5t8.5 24t6 29.5t-2 35q-75 -38 -153.5 -64t-159.5 -44q-68 -15 -125 -22.5t-98 -7.5q-29 0 -44.5 4t-20.5 11.5t-1 19.5t13 27q18 31 33 68t16 80q0 43 -13.5 85.5t-29.5 84.5q-15 43 -15 87t28 89
q-63 37 -106 67t-69 54q-25 23 -41 46t-18 44q-5 39 18.5 69t60 52.5t78 38t72.5 24.5q82 23 153 36t116 13q43 0 45 -12.5t-18 -37.5t-42.5 -55.5t-36.5 -66.5q-14 -38 -16.5 -70.5t-8.5 -60.5q-12 -58 -59 -124q64 -35 130.5 -68.5t132 -68.5t129 -73t122.5 -82
q5 40 -6 76t-32.5 67.5t-50 58t-57.5 48.5q-44 33 -94 58q-20 9 -37 14.5t-34 7.5q-8 8 -14 13.5t-14 13.5zM789 -22q-14 32 -39.5 59.5t-56 50.5t-61.5 42t-55 34q-48 29 -113 65t-144 80q-11 -24 -8 -51t15 -56t31.5 -60.5t36.5 -66.5q20 -38 29 -71t14 -62t18.5 -43
t55.5 -14q46 0 109 18q31 9 77 27.5t91 47.5zM285 419q22 21 33.5 44.5t17.5 50.5q6 26 10.5 55.5t18.5 61.5q11 26 23.5 46.5t19.5 37.5q8 17 3.5 25.5t-28.5 8.5q-31 0 -74 -11t-86 -32q-44 -22 -67 -42.5t-30 -41.5q-5 -17 -2 -36t17 -41q14 -21 47.5 -52.5t96.5 -73.5z
" />
    <glyph glyph-name="quotesingle" unicode="'" horiz-adv-x="1316" 
d="M97 805h253q-15 -9 -28 -16t-22 -16t-12.5 -21t1.5 -31q4 -15 19 -29.5t34 -26.5t38 -22.5t31 -17.5q23 -14 53.5 -31t48.5 -39q16 -21 19.5 -36.5t-3 -27.5t-22 -22.5t-36.5 -23.5h-40q34 14 35.5 33t-17 39t-50.5 39.5t-64.5 36t-59.5 28t-35 15.5t-30.5 14t-49 24.5
t-51.5 32t-38 35t-9 34t35 29.5z" />
    <glyph glyph-name="parenleft" unicode="(" horiz-adv-x="1110" 
d="M1137 -197q-75 17 -147.5 40t-142.5 55q-94 43 -185.5 89.5t-182.5 94.5q-97 50 -194 106.5t-184 113.5q-64 42 -84.5 84t-10 81.5t46 73.5t84.5 60q104 55 226 87.5t253 52.5q127 20 254 31t248 24q-10 -5 -18 -8t-19 -8q-68 -9 -136.5 -18t-137.5 -20t-134.5 -26
t-128.5 -36q-37 -13 -73.5 -25.5t-70.5 -30.5q-35 -19 -61 -44.5t-37 -62.5q-6 -22 2.5 -47.5t27.5 -52t47.5 -53.5t62.5 -53q72 -54 147.5 -104.5t149.5 -104.5q51 -37 86 -66.5t64 -52.5t60.5 -44.5t65.5 -41.5q33 -20 73.5 -39.5t90.5 -37.5q-11 -5 -19.5 -8.5
t-22.5 -8.5z" />
    <glyph glyph-name="parenright" unicode=")" horiz-adv-x="1113" 
d="M1056 -1q-104 -55 -226 -87.5t-254 -52.5q-127 -20 -254.5 -31t-248.5 -24q8 4 15 6.5t17 6.5l138 18t138 20t135.5 26.5t130.5 36.5q37 12 73.5 24.5t71.5 31.5q35 18 62 43.5t38 62.5q6 22 -2 47.5t-27 52.5t-48 53.5t-63 52.5q-72 54 -147.5 105t-150.5 105
q-51 36 -86 66t-65 52q-30 23 -62 44.5t-66 42.5q-68 40 -168 77q13 5 23 9l25 10q76 -16 149 -39t144 -55q93 -44 183.5 -90.5t181.5 -94.5q97 -50 194 -106.5t184 -113.5q64 -41 84.5 -83.5t10.5 -82t-45.5 -74t-84.5 -59.5z" />
    <glyph glyph-name="asterisk" unicode="*" horiz-adv-x="1398" 
d="M667 345q-57 42 -111.5 82.5t-96.5 82.5q-30 29 -43.5 54t-16 45.5t4 36t16.5 26.5q27 32 75 55.5t100 39.5q52 17 94 25t68 8q22 0 20 -8t-21 -25q-18 -16 -48 -39t-57 -53q-24 -27 -43.5 -65t-13.5 -87q3 -24 15 -47t30 -45.5t40 -44t46 -41.5q12 21 16 46.5t6 55.5
q1 24 8 43t17 34t21.5 25t22.5 16q43 23 92 23q23 0 42.5 -6.5t39.5 -20.5q19 -14 34 -30t29 -35q15 -22 22.5 -42t3.5 -37q-9 -36 -150 -70q-42 -11 -71.5 -22t-48.5 -25q59 -17 119.5 -29t124.5 -20q77 -10 154 -24t149 -43q48 -19 81.5 -41t49.5 -45q24 -35 -4 -63
q-26 -27 -72 -27q-21 0 -44 6.5t-52 19.5q-28 13 -75 40.5t-132 72.5q-57 29 -125.5 57t-145.5 54q46 -35 96.5 -72t95.5 -78q39 -35 55 -65t17.5 -54t-8.5 -43t-23 -32q-25 -24 -66.5 -44t-93.5 -37t-91.5 -25t-58.5 -8q-26 0 -27 9t14 26q12 13 39 33t55 48q29 29 49 63.5
t22 75.5q1 20 -3.5 37t-11 31t-13.5 25t-13 19q-12 15 -34.5 38t-57.5 53q-11 -23 -16.5 -49.5t-7.5 -55.5q-2 -25 -10.5 -45t-20 -35.5t-25 -26.5t-25.5 -18q-34 -20 -75 -20q-24 0 -44 7t-40 21q-40 28 -62 62q-21 32 -25 63q-2 17 4 30.5t23 24.5q22 14 126 38
q69 17 111 46q-60 17 -121.5 29t-126.5 22q-107 15 -177.5 29t-105.5 27q-54 20 -93.5 44t-58.5 53q-21 31 5 59q14 14 32.5 20.5t39.5 6.5q45 0 101 -25q29 -13 72.5 -38.5t116.5 -63.5q69 -36 142.5 -65.5t148.5 -52.5z" />
    <glyph glyph-name="plus" unicode="+" horiz-adv-x="1061" 
d="M530 -200q107 52 165 104t65 108t-38 117.5t-143 133.5h-480q-15 11 -26.5 20l-23 18l-23 18t-26.5 20h480q-98 71 -142.5 133t-37 117.5t65.5 107.5t164 103h77q-106 -51 -164 -103t-65.5 -107.5t37 -117.5t142.5 -133h481q15 -11 26.5 -20l23 -18l23 -18t26.5 -20h-481
q98 -72 143 -133.5t38 -117.5t-65 -108t-165 -104h-77z" />
    <glyph glyph-name="comma" unicode="," horiz-adv-x="513" 
d="M170 -170q23 9 34.5 15t24.5 14q27 4 58.5 8.5t62 11.5t58 18.5t46.5 31.5q13 14 12.5 28.5t-8.5 27.5t-20.5 24.5t-22.5 20.5q-8 7 -17 12t-20 10q-15 6 -24 6q-14 0 -45 -14q-17 -6 -41 -6q-30 0 -60.5 4.5t-59.5 15.5q-28 9 -49 23.5t-20 29.5q1 12 11 21t23.5 16
t28 11.5t25.5 7.5q38 11 80.5 17t84.5 6q21 0 33.5 -2.5t20.5 -7t13 -12t10 -16.5q16 -30 38 -54.5t47 -47.5q11 -11 27.5 -26t27.5 -32t11.5 -35t-19.5 -34q-34 -29 -80.5 -45t-97.5 -25t-101 -13.5t-92 -9.5z" />
    <glyph glyph-name="hyphen" unicode="-" horiz-adv-x="885" 
d="M327 600h470q-59 -39 -82.5 -73.5t-19.5 -69.5t31.5 -73t70.5 -84q42 -46 69.5 -84t31.5 -73t-19 -69.5t-82 -73.5h-470q59 39 82 73.5t19 69.5t-31.5 73t-69.5 84q-43 46 -70.5 84t-31.5 73t19.5 69.5t82.5 73.5z" />
    <glyph glyph-name="period" unicode="." horiz-adv-x="500" 
d="M271 241q20 0 28.5 -3t11.5 -10t4 -16.5t6 -22.5q8 -21 24.5 -38.5t36 -33t39.5 -29.5t37 -27q14 -11 30.5 -26.5t25.5 -33.5t4.5 -35.5t-31.5 -31.5q-48 -23 -105 -37.5t-111 -15.5q-19 0 -27 3.5t-11 10t-4.5 16.5t-6.5 23q-9 21 -25 38.5t-35.5 33t-40 29t-37.5 26.5
q-14 11 -30 27.5t-25 34.5t-4.5 35.5t32.5 31.5q47 23 103.5 37t110.5 14z" />
    <glyph glyph-name="slash" unicode="/" horiz-adv-x="969" 
d="M1038 800q-83 -28 -155 -54t-129.5 -55.5t-99 -66t-62 -86t-18.5 -115t30 -153.5q25 -78 18 -137t-37 -104.5t-79 -78.5t-108.5 -59.5t-125 -48t-127.5 -42.5h-145q62 21 127 42.5t124.5 48t108.5 59.5t79.5 78.5t37.5 104.5t-18 137q-29 88 -30.5 153.5t19 115t61.5 86
t98.5 66t130 55.5t155.5 54h145z" />
    <glyph glyph-name="zero" unicode="0" 
d="M197 293l-45 36t-49.5 43t-46 48t-34.5 51t-15 52.5t12 53.5q22 40 64 68t93.5 48.5t106.5 34.5t103 26q81 20 161.5 32.5t163.5 13.5q45 0 68 -7t33.5 -21t14.5 -35.5t12 -49.5q18 -65 61.5 -118t97.5 -98.5t112 -85.5t105 -77q30 -24 70.5 -57t72 -70.5t45.5 -77.5
t-7 -80q-19 -36 -58 -64t-87 -48t-99 -34.5t-95 -23.5q-89 -20 -178 -35.5t-180 -17.5q-38 -1 -59.5 3.5t-33 14t-15.5 23t-7 32t-8.5 41t-18.5 49.5q-27 54 -70 99.5t-92.5 85t-101.5 75t-96 70.5zM452 275q39 -31 85.5 -65t88 -73t72 -85t37.5 -101q1 -27 -1 -46.5
t2.5 -33t19.5 -20t48 -6.5q32 0 82 8.5t110 25.5q30 9 59 20.5t55 26t47 32t33 37.5q17 36 11.5 71t-26 67.5t-51.5 62.5t-64 56t-64.5 48t-52.5 39q-36 28 -74.5 57.5t-74 62.5t-63.5 71t-43 84q-6 20 -7 37.5t0 32t1.5 26t-2.5 20.5q-10 23 -76 23q-41 0 -97.5 -10.5
t-116.5 -32.5q-41 -15 -77 -35t-61 -44t-35.5 -51t-0.5 -56q14 -40 39.5 -73.5t58 -63.5t68.5 -57.5t70 -54.5z" />
    <glyph glyph-name="one" unicode="1" horiz-adv-x="1279" 
d="M53 684q213 32 423.5 61t424.5 55h64q-103 -52 -157.5 -97t-72 -84.5t-4 -76t47 -71t82 -68.5t100 -70t101.5 -75t87 -82.5t55 -94t6 -108.5q-8 -21 -20 -37.5t-24.5 -29.5t-22.5 -22t-13 -14q-14 -21 21 -31q9 -3 13 -5t13.5 -3.5t31 -2.5t65.5 -1q-17 -8 -30 -13.5
t-34 -13.5h-904q21 8 34 13.5t30 13.5q190 1 267 12q38 5 70 12t57 16q8 3 32.5 8t56.5 12.5t67.5 16.5t66.5 20t53 24t28 28q11 53 -11.5 103t-65.5 97t-99 90.5t-111.5 84.5t-103.5 79.5t-75 74.5q-19 26 -27 48t-10 39t-1 29.5t0 20.5q-2 12 -7.5 20.5t-18.5 13.5
q-28 11 -77 11q-12 0 -39.5 -1t-63.5 -2.5t-78 -4t-82 -5t-75.5 -6t-59.5 -7.5q-4 7 -6 11.5t-4 11.5z" />
    <glyph glyph-name="two" unicode="2" horiz-adv-x="1195" 
d="M1447 -11q-35 -39 -77.5 -67.5t-89.5 -49.5t-96 -38t-97 -34h-928q21 8 34 13.5t31 13.5q31 9 75 20.5t95.5 26t106 32.5t107 40.5t98.5 49.5t80 59t52.5 70t15.5 82q-3 37 -18 73t-37 70t-47.5 65.5t-50.5 60.5q-38 45 -68.5 84t-64.5 69q-17 15 -35 26t-38.5 18.5
t-45.5 11.5t-57 4q-59 0 -121.5 -10.5t-121.5 -31.5t-96.5 -51.5t-38.5 -72.5h-43q-7 31 2 56.5t27.5 46.5t44.5 37t54.5 28.5t56 21.5t49.5 15q111 29 222.5 50t226.5 22q47 0 77 -4.5t48 -14.5t26 -24.5t11 -33.5q7 -38 15 -83t28 -97q14 -38 33 -75t35 -74
q13 -29 25 -59.5t17.5 -61.5t2 -63t-21.5 -64q-27 -47 -65.5 -83.5t-84.5 -65t-96 -50t-99 -38.5h411q125 0 182 6t112 23q26 9 50.5 21.5t43.5 29.5h43z" />
    <glyph glyph-name="three" unicode="3" horiz-adv-x="1253" 
d="M-36 597q32 32 72 56t83 41.5t88 30t88 22.5q102 24 205.5 38.5t208.5 14.5q55 0 90 -4.5t55 -14t28 -23.5t9 -33q3 -59 -7 -120q-4 -26 -10.5 -53t-19 -54t-32 -55t-48.5 -56q97 -16 192.5 -40.5t188.5 -58.5q71 -26 140.5 -62t121.5 -90q26 -28 32 -51.5t-2.5 -44.5
t-28 -38.5t-43 -32.5t-48 -27.5t-43.5 -22.5q-92 -34 -188.5 -56.5t-195.5 -36.5t-198.5 -20t-196.5 -6q-93 0 -139.5 6t-53.5 18q-12 24 31 52q30 21 78 36q47 16 91 16q33 0 63 -6q10 -2 30 -8.5t46 -17.5q50 -22 74 -26q38 -8 93 -8q80 0 159.5 15t154.5 41
q78 28 115 61.5t24 71.5q-10 28 -41.5 55.5t-82.5 53.5q-38 20 -74 35t-70 25q-46 14 -101.5 27.5t-121.5 24.5t-124.5 17t-112.5 6h-43q-8 7 -13.5 11t-13.5 10q95 7 161 41q32 17 47 37t16 43t-7.5 49t-19.5 54q-15 37 -30.5 66t-43.5 52q-27 23 -67 34.5t-105 10.5
q-53 0 -108.5 -6t-109.5 -19.5t-104.5 -36t-93.5 -55.5q-14 3 -22.5 5t-21.5 6z" />
    <glyph glyph-name="four" unicode="4" 
d="M1201 161q15 -15 26.5 -27.5t20 -23.5t15.5 -23.5t13 -27.5h-206q14 -37 8 -67.5t-25.5 -56t-48.5 -45.5t-60.5 -36.5t-62 -29.5t-53.5 -24h-186q23 11 53.5 24t62 29.5t60.5 36.5t48.5 45.5t25.5 56t-8 67.5h-647q-5 14 -11 25t-13.5 21t-17 21t-22.5 25q2 37 -4.5 73.5
t-14.5 73t-13 73t1 72.5q10 59 43 104.5t80.5 80.5t105.5 60.5t117 45.5t115 35.5t101 30.5h124q-68 -34 -125 -66.5t-87.5 -72t-25.5 -90.5t61 -122q33 -42 76 -79t89.5 -71.5t92.5 -68.5t87 -69h205zM810 161q-28 24 -74.5 56.5t-98.5 70.5t-102 81t-85 89t-49.5 94
t6.5 96q-52 -44 -82 -80.5t-45.5 -71t-18.5 -68.5t-0.5 -73.5t7 -86.5t5.5 -107h537z" />
    <glyph glyph-name="five" unicode="5" 
d="M1182 800q-82 -26 -161 -53.5t-155 -69.5h-535q-36 -20 -59.5 -35.5t-39.5 -30.5t-27.5 -30.5t-21.5 -35.5q172 -14 338.5 -50t328.5 -93q60 -21 122 -43.5t122 -50t115 -61.5t102 -77q41 -37 50 -73.5t-15 -69.5t-73 -61t-116 -51q-75 -26 -151.5 -44.5t-154.5 -30.5
q-101 -16 -200.5 -27.5t-201.5 -12.5q-80 -1 -118.5 7t-42.5 23q-7 29 39 66q26 21 67 36q42 16 88 16q33 0 56 -6q11 -3 27 -10.5t34 -19.5q29 -19 64.5 -28.5t86.5 -8.5q88 0 174.5 16t167.5 48q82 32 113 73t0 83q-24 32 -56 56.5t-68.5 44t-75.5 35t-76 30.5
q-104 42 -215.5 70.5t-223.5 48.5q-109 20 -216.5 27t-216.5 11q-14 61 6.5 109.5t62 87t98 67.5t115 51t113 38t92.5 29h638z" />
    <glyph glyph-name="six" unicode="6" horiz-adv-x="1253" 
d="M1123 800q-21 -8 -33.5 -13t-30.5 -13q-84 -5 -167 -13.5t-166 -24.5q-77 -14 -151.5 -34.5t-145.5 -50.5q-137 -58 -164 -128q-27 -69 54 -168q43 35 111.5 52.5t156.5 17.5q99 -1 196 -24t190 -56q49 -17 98.5 -37t97 -45t91.5 -55t82 -67q40 -39 40 -72t-22 -60
t-56.5 -48.5t-62.5 -39.5q-141 -62 -297.5 -91t-310.5 -30q-42 0 -69 4t-43.5 12.5t-24 20.5t-10.5 28q-8 54 -32 99.5t-57 85.5t-72 75.5t-76 69.5q-30 27 -63.5 55.5t-63.5 58.5t-53.5 62.5t-32.5 69.5q-10 39 6.5 71t46.5 57.5t67 44.5t67 33q106 48 229.5 76.5
t245.5 45.5q88 12 176 21t178 10h71zM366 303q52 -48 93 -87t69 -68q32 -34 64.5 -71t49.5 -77q9 -20 13 -38t6 -34t4 -29.5t5 -25.5q5 -17 25 -25t65 -8q54 0 129.5 14.5t153.5 43.5q39 15 69.5 33.5t50 40t24.5 45t-7 47.5q-21 39 -53.5 69.5t-71.5 55.5t-81.5 45.5
t-82.5 39.5q-80 38 -169 63.5t-180 25.5q-45 0 -84 -11q-41 -13 -92 -49z" />
    <glyph glyph-name="seven" unicode="7" horiz-adv-x="1351" 
d="M471 800h881q-22 -8 -35 -13.5t-31 -13.5q-54 -25 -113 -50.5t-105 -60t-70 -83.5t-9 -122q6 -29 21.5 -55.5t35 -51.5t39.5 -49t35 -48q42 -69 52 -122.5t-4.5 -96t-50 -75t-84.5 -60t-108 -51.5t-121 -48h-136q51 20 104.5 40t101.5 44t87 53t60.5 67t21.5 87.5
t-30 113.5q-24 51 -52.5 92t-53 77t-41 69t-15.5 69t24 77t76 93h-452q-69 0 -122 -4.5t-90 -14.5q-63 -17 -113.5 -42.5t-73.5 -60.5q-11 2 -18.5 4t-18.5 4q31 52 79 88t103.5 62t114 45t111.5 37z" />
    <glyph glyph-name="eight" unicode="8" horiz-adv-x="1311" 
d="M534 302q-115 33 -230.5 66t-223.5 85q-57 28 -93.5 59.5t-37.5 58.5q0 36 26.5 62t64.5 45t80 32t72 22q118 36 246.5 52t256.5 16q54 0 92 -4t63.5 -12t39.5 -19.5t20 -27.5q14 -32 16.5 -67.5t0.5 -76.5q-2 -27 -7.5 -54.5t-19.5 -55.5q-14 -29 -52.5 -62t-104.5 -71
q127 -35 253 -69.5t249 -82.5q46 -18 85 -37t68 -39t46.5 -39t20.5 -37q4 -26 -7 -47t-31.5 -38t-47 -31t-55 -24.5t-55 -19t-46.5 -14.5q-123 -38 -259 -55t-270 -17q-64 0 -106 5.5t-67.5 16t-38 27t-18.5 37.5q-10 35 -18 72t-17 79q-7 32 -9 63t6 63t33.5 66.5
t74.5 72.5zM632 275q-23 -25 -30.5 -52t-3.5 -56t14.5 -60.5t18.5 -66.5q11 -46 13 -82.5t13 -64.5q11 -27 43 -41t104 -14q78 1 154 11.5t151 32.5q75 21 119 47.5t52 57.5q6 26 -12 48.5t-55 42.5q-67 36 -139 64t-146 50.5t-148.5 42.5t-147.5 40zM646 378
q33 38 54.5 68.5t27.5 52.5q6 23 7 47.5t4 53.5q4 37 9.5 66t-3.5 51q-10 21 -42 31.5t-100 10.5t-144 -10.5t-148 -31.5t-115 -45.5t-51 -52.5q-10 -37 39 -74q49 -38 143 -70q79 -27 158.5 -50.5t160.5 -46.5z" />
    <glyph glyph-name="nine" unicode="9" horiz-adv-x="1261" 
d="M292 -200q21 8 33.5 13t30.5 13q96 2 189 14t186 29q48 9 97.5 21.5t97.5 29.5t92.5 40.5t82.5 53.5q31 25 45 52t13 55.5t-16 58.5t-41 61q-51 -35 -118 -53.5t-144 -17.5q-100 0 -197.5 22.5t-191.5 55.5q-50 18 -100.5 38.5t-98.5 46t-93 56t-83 67.5q-28 26 -37 49.5
t-4.5 44.5t19.5 39.5t35 34.5t43 30t42 26q140 60 294 89.5t305 30.5q51 0 80 -6t45.5 -18.5t23.5 -31t13 -42.5q12 -48 37 -89t57 -77t68 -68.5t71 -64.5q34 -30 74.5 -64.5t73.5 -72.5t52.5 -78.5t10.5 -82.5q-7 -34 -32.5 -62t-62.5 -51t-82.5 -41t-92 -32t-90 -25
t-77.5 -19q-143 -34 -287.5 -54t-292.5 -21h-70zM1054 294q-50 46 -89.5 82.5t-67.5 64.5q-34 35 -68 71.5t-54 76.5q-10 20 -15 37.5t-8 33t-5.5 28t-6.5 23.5q-8 22 -29.5 32.5t-68.5 10.5q-27 0 -59.5 -3.5t-68.5 -10.5t-73.5 -18t-74.5 -25t-67 -32.5t-48 -40t-22 -46
t10 -49.5q24 -44 64 -79t88 -63.5t99.5 -51t99.5 -40.5q80 -30 147.5 -45.5t125.5 -15.5t113 16q55 15 78 44z" />
    <glyph glyph-name="colon" unicode=":" horiz-adv-x="1358" 
d="M804 21q93 0 185.5 -6.5t183.5 -27.5q72 -17 100 -37t4 -44t-95 -44t-183 -37q-221 -33 -445 -33q-53 0 -71 3.5t-21.5 9t-5 13t-21.5 15.5q-40 17 -44.5 37.5t19.5 43.5q25 24 72 44t125 37q30 6 47.5 10.5t29.5 7.5t21 4.5t21 2.5t30 1h48zM563 792q107 0 175.5 -8.5
t109.5 -25.5q40 -17 45 -37t-20 -43q-24 -24 -71.5 -44t-125.5 -37q-30 -7 -47.5 -11t-29.5 -7t-20.5 -4.5t-20.5 -2t-30.5 -0.5h-48.5q-91 0 -182.5 6.5t-181.5 26.5q-72 17 -100 37t-4 44q25 23 95 43.5t181 37.5q36 5 60.5 9t43 7t34 4.5t34 2.5t43 1.5t61.5 0.5z" />
    <glyph glyph-name="semicolon" unicode=";" horiz-adv-x="1366" 
d="M84 -200q27 11 43 17.5t38 16.5q172 13 342.5 29.5t338.5 52.5q254 56 240 118q-3 14 -38 25q-27 7 -52 7q-20 0 -59.5 -4t-101.5 -12q-31 -4 -63.5 -5.5t-67.5 -1.5q-85 0 -154 6t-126 17q-56 11 -90 26.5t-51 35.5q-33 39 65 65q99 28 287 28q116 0 232.5 -10
t227.5 -35q34 -8 78.5 -18.5t85 -25t70.5 -33t36 -42.5q4 -17 -10.5 -33.5t-41.5 -31.5t-61 -28.5t-68 -24.5t-64 -18.5t-48 -12.5q-118 -28 -240.5 -45t-247.5 -28.5t-250.5 -19t-249.5 -15.5zM572 800q81 0 132.5 -6t80.5 -19q29 -12 29 -27.5t-25 -33.5
q-25 -17 -67 -32.5t-108 -28.5q-65 -12 -135 -18.5t-151 -6.5t-146.5 6.5t-114.5 18.5q-48 13 -62 28.5t11 32.5q25 18 81 33.5t141 27.5q84 12 166.5 18.5t167.5 6.5z" />
    <glyph glyph-name="less" unicode="&#x3c;" horiz-adv-x="1167" 
d="M0 327q101 115 228 191.5t267.5 128t288 86.5t289.5 67q-35 -13 -59.5 -23.5t-43.5 -20.5t-35.5 -20.5t-34.5 -23.5q-105 -33 -204 -69t-190.5 -83t-175 -109t-155.5 -147q80 -23 174 -45.5t193 -47.5t199 -54.5t193 -67.5t174.5 -86.5t142.5 -111.5q-18 -14 -34.5 -24.5
t-36.5 -20.5t-45.5 -21t-61.5 -25q5 52 -28.5 97.5t-93.5 86t-140 75t-167.5 64t-177 54t-168 43.5t-140 33.5t-93.5 23.5z" />
    <glyph glyph-name="equal" unicode="=" horiz-adv-x="1438" 
d="M251 800h1038q-36 -17 -75.5 -34t-75 -39t-62.5 -52.5t-38 -75.5h-1038q11 45 38 75.5t62.5 52.5t75 39t75.5 34zM503 1h1038q-11 -45 -38 -75.5t-62.5 -52.5t-75.5 -39t-76 -34h-1038q36 17 76 34t75.5 39t62.5 52.5t38 75.5z" />
    <glyph glyph-name="greater" unicode="&#x3e;" horiz-adv-x="1169" 
d="M1252 273q-101 -115 -228 -191.5t-267.5 -128t-288 -86.5t-289.5 -67q34 13 58.5 23.5t43.5 20t35.5 20t34.5 23.5q105 33 204.5 69t191.5 83t175.5 108.5t156.5 147.5q-81 23 -175 45.5t-193 47.5t-199.5 54.5t-193.5 67.5t-174.5 86.5t-143.5 111.5q18 14 34.5 25
t36.5 21t46 21t62 25q-5 -52 28.5 -97.5t93.5 -86t140 -75t167.5 -64t177 -54t168 -43.5t140 -33.5t93.5 -23.5z" />
    <glyph glyph-name="question" unicode="?" horiz-adv-x="1114" 
d="M1010 45h-58q-8 45 -30 82t-38 66t-33.5 69.5t-28.5 92.5q-8 40 -12 70.5t-9 52.5q-5 21 -10.5 42.5t-10.5 43.5q-10 45 -11 81t-14 62q-7 13 -17.5 23t-28 17t-42 10t-59.5 3q-61 0 -123.5 -7t-122.5 -22q-119 -29 -146 -63q-24 -27 12 -64q18 -19 31.5 -33.5
t17.5 -24.5q9 -26 -11 -43q-11 -8 -27 -12.5t-40 -4.5q-61 0 -127 29q-33 15 -54.5 37.5t-16.5 44.5q7 33 36.5 55.5t67.5 39t79 27t73 19.5q119 34 247.5 48t256.5 14q73 0 120.5 -5.5t77 -16t43 -26.5t18.5 -37q8 -31 11.5 -65.5t7.5 -72.5q3 -26 5.5 -52.5t2.5 -53.5
t-7.5 -59t-25.5 -69q-28 -58 -38 -99t-7 -65q3 -25 18 -58t23 -76zM982 -42q68 0 97 -23q14 -12 10.5 -26t-27.5 -31q-51 -32 -151 -55t-167 -23q-32 0 -45 6t-10 17t18 25t40 30q47 34 109 57q32 11 62.5 17t63.5 6z" />
    <glyph glyph-name="at" unicode="@" horiz-adv-x="1237" 
d="M1360 -37q-20 -15 -42.5 -27t-45.5 -22q-22 -10 -42.5 -18t-36.5 -14q-115 -44 -246 -67.5t-258 -24.5q-71 -1 -102 16t-41 52q-4 15 -7 33.5t-10 40.5q-6 20 -17.5 43.5t-33.5 49.5q-29 35 -63 66.5t-71 61.5q-38 29 -75.5 57t-73.5 57q-16 13 -33.5 27t-35.5 29
q-19 15 -36.5 31t-33.5 33q-32 34 -51.5 72.5t-12.5 81.5t42 75.5t82.5 56.5t98 40.5t88.5 27.5q102 29 211.5 48.5t218.5 20.5q61 1 91.5 -12t37.5 -42q3 -12 3 -28q-1 -7 -1.5 -15t-0.5 -16q-1 -17 0 -35t7 -39q13 -42 48.5 -87.5t87.5 -95.5q25 -25 51.5 -49.5
t51.5 -48.5q26 -25 49 -49t41 -49q37 -49 40.5 -88t-24.5 -65q-25 -24 -62 -35.5t-79 -11.5q-50 0 -82 21t-62 56q-9 11 -20.5 24.5t-26.5 29.5q3 -37 -8.5 -62t-29.5 -39q-20 -16 -42 -23.5t-44 -7.5q-23 0 -46.5 9.5t-50.5 26.5q-28 17 -55 40t-58 52q-42 39 -85.5 82.5
t-76.5 93.5q-35 50 -37.5 92.5t29.5 77.5q22 23 51.5 35t58.5 12q38 0 66.5 -13.5t54.5 -35.5q-3 10 -4 33l110 14q0 -39 7.5 -64t23.5 -48q14 -23 39 -49q12 -13 25.5 -27t29.5 -30q58 -61 94 -98.5t50 -54.5q14 -16 24 -28.5t19 -22.5q13 -17 33 -27q20 -11 35 -11
q20 0 37.5 9t29.5 26q11 15 4.5 43t-41.5 73q-17 21 -38 43t-45 45t-48.5 46.5t-48.5 47.5q-46 46 -79.5 89t-50.5 84q-8 20 -12.5 37.5t-7.5 32.5q-2 12 -5 24.5t-9 23.5q-9 17 -33 27t-78 10q-94 -2 -188 -19.5t-179 -46.5q-36 -12 -76.5 -28.5t-75 -38.5t-57 -50
t-22.5 -62q0 -35 19.5 -68t51.5 -65t67 -59.5t70 -56.5q68 -54 136 -106.5t125 -118.5q21 -26 34.5 -48t23.5 -42q5 -10 8.5 -19t7.5 -17q5 -8 8.5 -15t7.5 -13q16 -23 46 -35.5t92 -11.5q102 1 206.5 19.5t193.5 55.5q17 7 35.5 14.5t38.5 16.5q18 8 36 18.5t33 22.5
q29 24 43.5 58.5t0.5 90.5h53q15 -30 16.5 -55.5t-7 -47.5t-24 -40t-35.5 -33zM759 306q-39 43 -71.5 77.5t-58.5 61.5q-17 17 -32 30.5t-32 24.5q-34 19 -60 19q-20 0 -34.5 -9t-19.5 -26q-9 -27 7 -66t61 -93q32 -38 63 -69t57 -54q20 -17 38 -30t38 -24q39 -20 61 -20
q31 0 44 19q7 10 8 25.5t-7 38.5t-23.5 47t-38.5 48z" />
    <glyph glyph-name="A" unicode="A" horiz-adv-x="1022" 
d="M863 127h-379q10 -23 15 -41t3.5 -35.5t-11 -36t-27.5 -41.5q-23 -29 -50 -50t-46 -35q-33 -24 -43 -39q-5 -9 6 -14.5t41 -7.5q-17 -8 -30 -13.5t-34 -13.5h-90t-104 0.5t-104 0.5h-90q21 8 34 13.5t30 13.5q21 3 53 5.5t64 6t59.5 7t39.5 8.5q25 9 43 22t32.5 31t28 40
t28.5 49q19 42 16.5 79.5t-19 72t-43 66.5t-55.5 63t-56 61t-45 60q-35 61 -35.5 108.5t24 85t68.5 66t97.5 53t111 45.5t109.5 43h25q-94 -58 -128 -109t-20.5 -100t67 -97.5t133.5 -100.5q42 -27 93 -53.5t104 -54.5t106 -59t99 -67.5t81 -78.5t54 -93q4 -25 -0.5 -45
t-13 -36t-18 -28t-13.5 -19q-9 -14 -3 -22t32 -10q-18 -8 -31 -13.5t-34 -13.5h-386q21 8 34 13.5t31 13.5q32 2 62.5 6.5t56.5 12.5q54 17 87 41q11 8 21 18t17.5 22.5t10.5 27.5t0 32q-4 21 -11.5 37.5t-20.5 32.5t-31.5 32.5t-45.5 37.5zM791 181q-68 42 -147.5 83
t-156.5 87.5t-145.5 101t-114.5 123.5q-5 -40 4 -76.5t27 -71.5t43 -67.5t52 -63.5t53.5 -60t48.5 -56h336z" />
    <glyph glyph-name="B" unicode="B" horiz-adv-x="1275" 
d="M844 310q75 -11 142.5 -29t128.5 -41q34 -14 69 -30t67 -36.5t59 -45t45 -54.5q20 -35 2.5 -73t-72.5 -70q-66 -39 -142 -62.5t-153 -37.5q-90 -17 -181 -24t-183 -7h-544q21 8 34 13.5t31 13.5h44q36 0 83.5 10t96.5 30q15 6 34 16.5t36.5 24t32 31t21.5 38.5
q8 57 -11 102.5t-54.5 83.5t-83 71.5t-98 65.5t-98 65.5t-83 71.5t-54.5 83.5t-11 102.5q8 23 21.5 42t28 33.5t26.5 25t16 16.5q12 17 5 25t-40 8h-43q18 8 31 13.5t35 13.5h498q138 0 180 -18q16 -7 24.5 -16t11.5 -21t2.5 -26t-1.5 -31q-2 -34 4 -72t26 -83
q17 -38 36 -71.5t27 -63.5q8 -29 -2.5 -51.5t-43.5 -36.5zM347 350q19 -2 39 -4t43 -4q22 -1 44.5 -1.5t47.5 -0.5q123 0 157 23q17 12 19.5 29.5t-5.5 41.5t-20.5 50t-24.5 55q-18 44 -26 81t-17 69q-4 15 -13 27t-26.5 19.5t-44 11.5t-66.5 4q-43 0 -88.5 -4.5
t-93.5 -12.5q-68 -60 -87 -108.5t-3 -92.5t60.5 -88t104.5 -95zM562 -128q34 -10 73.5 -15t87.5 -5q82 1 163.5 15.5t157.5 44.5q72 29 105 66.5t14 82.5q-12 29 -43.5 57t-78.5 55t-102.5 48t-117.5 37q-120 31 -244 31q-26 0 -48.5 -0.5t-40.5 -1.5q-17 -1 -30.5 -2
t-22.5 -3q41 -34 79.5 -64.5t67.5 -61t46.5 -62t18 -65.5t-19.5 -73t-65 -84z" />
    <glyph glyph-name="C" unicode="C" horiz-adv-x="1357" 
d="M1155 800q-30 -15 -66.5 -34t-69.5 -42t-59 -50.5t-35.5 -58.5t2.5 -66t54 -74h-27q-43 37 -69.5 68t-42.5 57.5t-25 47.5t-17 37t-18.5 28t-27 20t-40 12t-57.5 4q-57 0 -131 -12t-150 -36q-38 -12 -74 -28.5t-64 -36.5t-46 -42.5t-19 -46.5q-2 -42 19.5 -78.5
t53.5 -69.5t70 -61.5t69 -53.5q69 -54 140 -107t131 -117q22 -23 38 -44t28.5 -39.5t23 -34t22.5 -28.5q23 -26 59 -38.5t101 -12.5q57 0 122.5 10t132.5 30q33 10 69.5 25t69.5 34.5t59.5 44t40.5 54.5q10 -4 16 -6.5t16 -7.5q-22 -42 -59 -72t-81 -52t-91 -36.5t-89 -25.5
q-49 -13 -100.5 -25t-103 -21t-102 -13t-97.5 -1q-48 3 -81 11t-55.5 26.5t-37 51.5t-24.5 87q-30 49 -71.5 90.5t-87.5 79t-93.5 71.5t-90.5 68q-30 24 -67 54t-66.5 63.5t-46 70.5t-6.5 75q10 40 46 69.5t83 51.5t97.5 37.5t90.5 26.5q103 29 213.5 47t222.5 19
q62 1 90.5 -12t42.5 -39q7 -15 23 -15q24 0 64 13q29 10 64 23t84 30h30z" />
    <glyph glyph-name="D" unicode="D" horiz-adv-x="1234" 
d="M100 -200q22 8 35 13.5t31 13.5h39q32 0 77 10.5t93 30.5q14 6 31.5 16t35 23.5t32 31t21.5 38.5q8 57 -11 102.5t-54.5 83.5t-83 71.5t-98 65.5t-98 65.5t-83 71.5t-54.5 83.5t-11 102.5q8 23 22 42t29 33.5t27.5 25t17.5 16.5q13 17 8.5 25t-33.5 8h-39q18 8 31.5 13.5
t34.5 13.5h420q58 0 99.5 -3t70 -9.5t45 -16t23.5 -22.5q6 -13 8 -30t5.5 -38.5t12.5 -47t30 -54.5q30 -42 69 -78t81 -69t85 -64.5t83 -62.5q21 -17 51 -41.5t59 -54t51 -62t27.5 -66t-11 -65.5t-64.5 -60q-74 -43 -159 -72.5t-173.5 -48t-178 -27t-173.5 -8.5
q-116 -1 -230.5 -0.5t-230.5 0.5zM548 -128q64 -21 126 -20q73 1 120 1t82.5 11.5t68.5 40t79 86.5q34 42 43 78.5t1.5 67.5t-28 57.5t-45.5 48.5t-51 40.5t-45 33.5q-46 36 -96.5 72.5t-99 75.5t-92.5 83t-77 96q-13 20 -17 35t-5 26t-3 18.5t-9 12t-23.5 6.5t-46.5 2
q-34 0 -82 -5t-108 -16q-51 -57 -64.5 -106t0 -92t48.5 -82t81 -75t96.5 -71.5t95.5 -71.5t79 -75t46 -81.5t-4 -91.5t-70 -105z" />
    <glyph glyph-name="E" unicode="E" horiz-adv-x="1237" 
d="M300 745q-75 -60 -100 -108.5t-12 -93.5t58 -91.5t109 -101.5h266q103 0 106 26q3 17 -18 46.5t-49 72.5h33q42 -52 91.5 -95.5t102 -84t104.5 -81.5t99 -87h-33q-41 37 -75.5 60t-54.5 34q-49 26 -104 41q-59 14 -132 14h-266q24 -19 53.5 -40t59 -45.5t56.5 -51.5
t45.5 -57t25.5 -64t-3 -71q-7 -17 -17 -30.5t-19.5 -23.5t-17.5 -17t-11 -10q-12 -16 -10 -23q3 -8 53 -8h206q51 0 93.5 3t75.5 8q33 6 72.5 18t79.5 29q26 11 51 25.5t46 31.5t36 37.5t22 43.5h36q-10 -58 -49.5 -97.5t-91.5 -68t-108 -48t-100 -37.5h-934q21 8 34.5 13.5
t31.5 13.5h42q43 0 117 17q26 6 51 15t48 21q11 6 25 15t27.5 21t25 27t17.5 33q8 57 -11 102.5t-55 84t-84 72t-98.5 66t-98 66t-83 72t-53 84.5t-8.5 103q9 24 23.5 43t30 33.5t28 24.5t16.5 16q11 15 0 22.5t-49 7.5h-43q18 8 31 13.5t35 13.5h934q-36 -18 -77.5 -36
t-77 -42t-59.5 -58t-25 -83h-34q-6 20 -6 36.5t2.5 30t6.5 24t6 17.5q10 32 -6 45q-17 11 -107 11h-332z" />
    <glyph glyph-name="F" unicode="F" horiz-adv-x="1030" 
d="M338 745q-75 -60 -100 -108t-12.5 -93t56.5 -91t108 -101h251q86 0 92 28q4 14 -14.5 41t-42.5 69h38q41 -50 90 -92.5t100 -82.5t102 -79.5t98 -84.5h-38q-29 29 -59.5 50.5t-57.5 35.5t-54 23.5t-53 17.5q-51 13 -122 13h-251q35 -28 79.5 -60t82 -70.5t60 -84
t13.5 -99.5q-6 -19 -17 -35t-22 -28.5t-21 -21.5t-16 -15q-19 -20 -12 -32q10 -18 57 -18h50q-18 -8 -31.5 -13.5t-34.5 -13.5h-591q21 8 34 13.5t31 13.5h49q43 0 93.5 9t100.5 27q16 6 45.5 16.5t60 25.5t55.5 33.5t33 41.5q8 57 -11 102.5t-54.5 83.5t-83 71.5
t-97.5 65.5t-97.5 65.5t-83 71.5t-54.5 83.5t-11 102.5q6 19 16.5 35t21.5 28.5t21.5 21.5t16.5 15q18 21 13 32q-2 4 -16 7t-32 5t-37 2.5t-31 0.5h-49q18 8 31 13.5t35 13.5h1025q-36 -18 -77.5 -36t-77.5 -42.5t-60 -58.5t-24 -83h-35q-16 35 -16 60.5t-1 42.5
q-2 17 -6.5 28.5t-18.5 19.5q-25 14 -134 14h-303z" />
    <glyph glyph-name="G" unicode="G" horiz-adv-x="1251" 
d="M1063 800q-25 -13 -58.5 -29.5t-66.5 -37.5t-60.5 -46t-41 -54t-7 -63t41.5 -72h-27q-29 28 -47.5 53t-30 46t-17.5 39t-10 32q-6 21 -13 36.5t-20 26t-34.5 15.5t-56.5 5q-55 -1 -114.5 -8.5t-117.5 -24.5t-110.5 -44.5t-93.5 -67.5q-24 -29 -28 -57.5t6 -56t30.5 -53
t45 -48.5t49 -42t42.5 -33q38 -30 79 -59.5t82 -59.5t80 -62t74 -68q27 -28 43 -52.5t26 -45.5t16 -38t13 -30q14 -26 36.5 -39t70.5 -13q29 0 62 3t71 10t78.5 16.5t80.5 23.5q47 37 56.5 72.5t-2.5 70t-39 68t-54 65.5q-38 36 -71.5 59.5t-53.5 34.5t-40 19.5t-40 14.5
t-45 8.5t-56 2.5q-11 8 -17.5 13.5t-17.5 13.5h395q11 -8 17.5 -13.5t17.5 -13.5h-19q-59 0 -33 -36q10 -14 38.5 -40.5t71.5 -62.5q35 -30 61 -68.5t33 -78.5t-9.5 -78t-66.5 -67q-72 -21 -144 -37t-145 -28q-33 -5 -73 -9.5t-79 -7.5t-74 -4.5t-59 0.5q-49 4 -83 11.5
t-57.5 26t-38.5 51.5t-24 89q-30 49 -71.5 90t-87 78t-93 71t-90.5 68q-30 24 -62 48.5t-59 53t-46 63t-23 76.5q6 34 28 61t53 47.5t68 36.5t75 28t73.5 21.5t63.5 18.5q97 29 197 44.5t200 16.5q54 0 80 -8q12 -5 22.5 -14t24.5 -24q13 -15 29 -15q8 0 19 3.5t28 9.5
t45 18t76 30h28z" />
    <glyph glyph-name="H" unicode="H" horiz-adv-x="1164" 
d="M343 336h467q-32 26 -70.5 55.5t-70 65t-49.5 76.5t-9 89q6 19 16.5 35t22.5 28.5t23 22t18 15.5q10 10 16 17.5t7 14.5q3 18 -31 18h-35q18 8 31 13.5t34 13.5h430q-22 -8 -35 -13.5t-31 -13.5h-35q-37 0 -103 -17q-23 -6 -47 -15t-46 -21q-11 -6 -24.5 -15t-27 -21.5
t-24.5 -28t-17 -33.5q-7 -57 12 -102t54.5 -83.5t83 -71.5t97.5 -65.5t97.5 -65.5t83 -71.5t54 -83.5t10.5 -102q-6 -19 -16.5 -35t-22 -28.5t-22.5 -21.5t-18 -15q-23 -21 -24 -32q-3 -18 31 -18h36q-18 -8 -31.5 -13.5t-34.5 -13.5h-430q22 8 35 13.5t31 13.5h36
q31 0 72.5 9t86.5 27q15 6 34 16t37.5 24.5t34 32.5t23.5 41q6 35 -1.5 66t-25 58.5t-41.5 52.5t-51 47.5t-53.5 42.5t-49.5 38h-466q34 -27 76 -58.5t77.5 -69t56.5 -81.5t12 -96q-6 -19 -17 -35t-22.5 -28.5t-22.5 -21.5t-18 -15q-22 -20 -23 -32q-3 -18 30 -18h37
q-18 -8 -31.5 -13.5t-34.5 -13.5h-430q21 8 34 13.5t31 13.5h36q31 0 73 9t87 27q15 6 34 16t37.5 24.5t34 32.5t23.5 41q8 57 -11 102t-54.5 83.5t-83 71.5t-97.5 65.5t-97.5 65.5t-83 71.5t-54.5 83.5t-12 102q6 19 16.5 35t22.5 28.5t23 22t18 15.5q10 10 16 17.5t8 14.5
q1 18 -31 18h-36q18 8 31 13.5t35 13.5h430q-22 -8 -35 -13.5t-31 -13.5h-36q-35 0 -103 -17q-23 -6 -46.5 -15t-45.5 -21q-11 -6 -25 -15t-27.5 -21.5t-24.5 -28t-17 -33.5q-9 -48 9.5 -89t50 -76.5t70 -65t69.5 -55.5z" />
    <glyph glyph-name="I" unicode="I" horiz-adv-x="1092" 
d="M1170 -173q-18 -8 -31.5 -13.5t-34.5 -13.5h-1038q21 8 34 13.5t31 13.5h86q75 0 149 9t139 27q14 4 42 10.5t62 14.5t71 18.5t68.5 22.5t53.5 25.5t27 28.5q8 57 -8 101t-47.5 80.5t-74.5 67.5t-89.5 61t-93.5 61.5t-85.5 69t-65 83t-33.5 103.5q6 19 -4 34.5t-24 27.5
t-25.5 21t-8.5 15q3 4 -3 11t-15.5 14t-20 13t-17.5 9q-45 18 -128 18h-86q18 8 31 13.5t35 13.5h1038q-22 -8 -35 -13.5t-31 -13.5h-87q-75 0 -148.5 -9t-138.5 -27q-21 -6 -45 -16t-46 -24.5t-39.5 -33t-24.5 -40.5q-8 -57 11 -102.5t54.5 -83.5t83 -71.5t98 -65.5
t98 -65.5t83 -71.5t54.5 -83.5t11 -102.5q-6 -19 -16 -35t-20.5 -28.5t-19 -21.5t-11.5 -15q-9 -19 21 -32q42 -18 126 -18h88z" />
    <glyph glyph-name="J" unicode="J" horiz-adv-x="893" 
d="M8 773q17 8 30 13.5t34 13.5h812q-21 -8 -34 -13.5t-30 -13.5h-69q-58 0 -119.5 -8.5t-118.5 -26.5q-18 -6 -40 -15.5t-42.5 -23.5t-37.5 -32t-25 -40q-9 -49 10.5 -96t57 -90.5t87 -84.5t100 -77.5t96 -69t74.5 -60.5q27 -26 40 -51.5t14 -48.5t-9 -43t-28 -36
q-30 -26 -65 -44t-73 -31.5t-77 -23.5t-77 -20q-94 -25 -192.5 -38t-197.5 -13q-66 0 -95.5 8.5t-32.5 25.5q-2 17 10.5 35.5t35.5 40.5q19 18 36.5 31.5t39.5 22.5q54 22 115 22q46 0 76 -15q7 -4 14.5 -11t12 -17t4 -23.5t-8.5 -29.5q-10 -20 -7.5 -29.5t27.5 -9.5
q19 0 47.5 6t63.5 18t68.5 33t48.5 51q18 57 12 103.5t-27.5 87t-54.5 76.5t-69.5 71.5t-71.5 71t-61 76t-38.5 87.5t-3.5 104q7 18 17.5 33.5t21 28t19.5 21.5t14 15q2 3 -9 5t-29 4t-40.5 3.5t-42.5 2.5t-35 3t-18 4q-24 17 -91 17h-68z" />
    <glyph glyph-name="K" unicode="K" horiz-adv-x="1088" 
d="M450 355q82 -36 175.5 -71.5t185 -77.5t173.5 -94.5t141 -123.5q18 -22 25.5 -41t10 -34.5t1.5 -27.5t1 -20q3 -17 14 -26.5t37 -11.5q-18 -8 -31 -13.5t-34 -13.5h-458q21 8 34 13.5t31 13.5q43 0 90 15q46 13 74 32q26 17 36 31q5 8 6 20.5t-7 32.5q-40 68 -109 118.5
t-149 90t-162 71t-149 61.5q36 -28 82 -61t85 -72.5t63 -86.5t15 -102q-6 -19 -17 -35t-22.5 -28.5t-22.5 -21.5t-18 -15q-23 -21 -25 -32q-5 -18 28 -18h33q-18 -8 -31 -13.5t-35 -13.5h-410q21 8 34 13.5t31 13.5h34q30 0 71 9t86 27q14 6 33 16t37.5 24.5t34 32.5
t23.5 41q8 57 -11 102.5t-54.5 83.5t-83 71.5t-98 65.5t-98 65.5t-83 71.5t-54.5 83.5t-11 102.5q6 19 17 35t23 28.5t23 22t18 15.5q21 18 25 31q3 18 -29 18h-34q18 8 31 13.5t35 13.5h410q-22 -8 -35 -13.5t-31 -13.5h-32q-34 0 -100 -17q-23 -6 -46 -15t-45 -21
q-11 -6 -24.5 -15t-27 -21t-25 -27.5t-17.5 -33.5q-9 -53 12 -97t57 -81.5t78.5 -69t76.5 -58.5q-2 7 -8.5 30.5t-9.5 63.5q-3 46 11 85.5t39.5 72.5t60 60t70.5 49q48 28 84 52q14 8 24 15.5t15 14.5q13 13 -23 13h-22q18 8 31 13.5t35 13.5h353q-21 -8 -34 -13.5
t-31 -13.5q-34 -2 -76 -9q-21 -5 -52 -12.5t-68 -18.5q-38 -12 -85 -30.5t-92 -44.5q-7 -4 -25.5 -15.5t-40.5 -30.5t-43 -45.5t-31 -60.5q-7 -23 -9.5 -41t-1 -35t6 -35t10.5 -40z" />
    <glyph glyph-name="L" unicode="L" horiz-adv-x="1113" 
d="M1317 77q10 -2 16.5 -3t15.5 -3q1 -42 -15.5 -75t-45 -59.5t-65 -46.5t-74.5 -36.5t-74.5 -29.5t-64.5 -24h-935q21 8 34 13.5t31 13.5h46q38 0 87.5 10.5t100.5 31.5q14 6 32 15.5t35.5 23t32 31.5t21.5 39q7 57 -12 102t-54.5 83.5t-83 71.5t-97.5 65.5t-97.5 65.5
t-83 71.5t-54.5 83.5t-11 102q8 23 21.5 42t28 33.5t26.5 25t16 16.5q11 17 3 25t-43 8h-45q18 8 31 13.5t35 13.5h546q-21 -8 -34 -13.5t-31 -13.5q-97 0 -166 -15q-35 -8 -65.5 -17.5t-54.5 -21.5q-12 -6 -28 -16t-31 -24t-26.5 -32.5t-15.5 -40.5q4 -54 28 -98t61.5 -81
t83.5 -69t93 -63.5t91 -64t76.5 -70t50.5 -82t13 -100.5q-10 -31 -27 -52t-25 -32q-10 -16 0 -23q11 -8 127 -8h88q139 0 222 17q41 9 84.5 24t82.5 36q19 11 37.5 25t32.5 31t22 37.5t7 43.5z" />
    <glyph glyph-name="M" unicode="M" horiz-adv-x="1219" 
d="M1251 -103q-8 -8 -15 -14t-14 -11l-11 -9q-3 -2 -8 -7q-16 -15 -15 -20.5t22 -5.5h39q-13 -6 -22.5 -10t-17.5 -8t-16.5 -7.5t-19.5 -7.5h-357q15 6 26 10.5t19.5 8t16 7t16.5 7.5h29q26 0 65 9t81 29q13 6 30 15.5t34 23t31 30t22 37.5q9 56 -10.5 101.5t-57.5 85.5
q-38 38 -89 75q-25 18 -51 35l-52 34q-51 33 -98 67.5t-81 73.5t-48.5 84t0.5 100q-23 -30 -29.5 -59.5t-0.5 -58.5t22.5 -57.5t38.5 -56.5q24 -29 51 -56.5t53 -54.5q26 -26 48 -51t36 -48q25 -44 34.5 -81t6 -68t-19.5 -56.5t-40 -47.5t-55 -40t-66 -35t-72 -32t-73 -31
h-29q71 43 109 82.5t49 76t-1 70.5t-41.5 66.5t-73.5 63.5t-95 63q-39 24 -80 47.5t-82 47.5t-81 48.5t-76 50.5q-69 49 -116 102t-55 113q-14 -53 0 -96.5t47 -82t80 -72.5t98 -67q26 -17 52 -34.5t51 -35.5t47.5 -37t41.5 -39q38 -40 58.5 -87t11.5 -104q-9 -24 -24 -43
t-30 -33q-8 -8 -15.5 -14t-14.5 -11l-11 -9q-3 -2 -8 -7q-16 -15 -15 -20.5t22 -5.5h40q-13 -6 -22.5 -10t-18 -8t-17 -7.5t-19.5 -7.5h-295q15 6 26 10.5t20 8t16.5 7t16.5 7.5h29q26 0 64.5 9t80.5 29q13 6 30 15.5t34 23t31.5 30t22.5 37.5q9 57 -9 102t-53 83
q-17 20 -38.5 38t-44.5 35q-48 33 -99 66t-99.5 67t-84.5 73t-54 85.5t-8 103.5q8 24 23.5 43.5t33.5 36.5q5 5 9.5 9t9.5 8l19.5 19.5t11.5 15.5q2 5 -6 8q-5 2 -14.5 2.5t-30.5 0.5q13 6 22.5 10t17.5 7.5t16.5 7t19.5 7.5h238q-80 -48 -122 -89t-47 -82t27 -86t100 -102
q34 -28 71.5 -52.5t76.5 -47.5q40 -23 81 -44.5t81 -44.5q79 -45 148.5 -98.5t117.5 -130.5q9 61 -16.5 110.5t-65.5 93.5q-20 23 -42.5 44.5t-44.5 43.5q-21 22 -40.5 44t-33.5 46q-27 45 -37 82t-7 68.5t18 57t39 47.5q23 22 54 40.5t66 35.5t72.5 32.5t75.5 31.5h243
q-16 -6 -27 -10t-19.5 -7.5t-16 -7t-16.5 -7.5h-29q-26 0 -64.5 -9t-81.5 -29q-13 -6 -30 -15.5t-33.5 -23t-31 -30t-22.5 -37.5q-9 -56 8.5 -101.5t53 -84t83.5 -72t99 -66.5q26 -17 51 -33t48 -33q24 -17 45.5 -35t39.5 -38q36 -39 54 -85.5t8 -104.5q-8 -24 -23 -43
t-31 -33z" />
    <glyph glyph-name="N" unicode="N" horiz-adv-x="1127" 
d="M1019 189q-40 33 -84.5 65.5t-88.5 67.5q-43 34 -81 69.5t-65 73.5t-39 79.5t-3 86.5q10 23 25 42t30 33q8 8 15 13.5t13 10.5q3 3 5.5 5t4.5 4t4 3.5t3 2.5q11 13 9.5 18.5t-28.5 5.5h-51q15 7 26 12t20 8.5t17 7t19 7.5h355q-18 -7 -30.5 -11.5t-22 -8.5t-17 -7.5
t-16.5 -7.5h-35q-29 0 -70.5 -9t-86.5 -28q-14 -6 -31 -15.5t-34 -22.5t-31.5 -29.5t-22.5 -36.5q-8 -36 -4 -68.5t17.5 -62.5t35 -57.5t48.5 -53.5t58 -49.5t63 -46.5q33 -23 65.5 -45t61.5 -43q40 -29 72 -58.5t49.5 -60t17 -62.5t-25.5 -67.5t-77.5 -74.5t-139.5 -83h-38
q46 36 70 68t30.5 60.5t-1.5 54t-27 48.5t-46.5 45.5t-60.5 42.5q-33 21 -69 40t-71 38q-85 45 -179 85t-187 85q-90 43 -172.5 95t-148.5 121q11 -45 36 -83t59 -70q19 -18 39.5 -34.5t42.5 -32.5t44 -31t45 -30q45 -31 87 -63t74.5 -69t52 -81t18.5 -99q-5 -24 -17 -43
t-24 -33l-24 -24q-6 -6 -8 -9q-5 -3 -6 -6q-8 -12 -5 -18t30 -6h51q-27 -14 -41 -20.5t-33 -14.5h-353q16 7 27.5 11.5t19.5 8.5l15 7.5l15 7.5h34q31 0 70.5 9t79.5 28q12 6 27.5 15.5t29.5 22t25.5 29t16.5 36.5q1 45 -25.5 88.5t-69.5 85.5q-22 21 -46 42t-50 41t-53 41
t-53 41q-52 40 -98 81.5t-73.5 84t-30 87.5t31.5 93q1 13 3.5 23.5t5.5 18.5l7 14t4 10q6 13 -5 26q-2 2 -15 3.5t-49 1.5q15 7 26 12t20 8.5t17.5 7t19.5 7.5h281q-72 -28 -100 -61t-25.5 -68.5t28.5 -71t62 -67.5t76.5 -58.5t70.5 -43.5q87 -48 174.5 -90.5t175.5 -85.5
q85 -42 166.5 -85.5t159.5 -96.5q-20 29 -49 56.5t-65 56.5z" />
    <glyph glyph-name="O" unicode="O" horiz-adv-x="1320" 
d="M692 -204q-54 -1 -79.5 8.5t-36.5 29.5q-5 9 -8 20.5t-5 24.5t-5.5 28t-9.5 32q-22 60 -66 109.5t-98 93.5q-55 44 -111.5 82.5t-104.5 75.5q-30 24 -63 55t-58.5 65.5t-40.5 70.5t-8.5 70t37.5 64.5t97 53.5q132 60 280 92t293 33q51 0 74 -9t32 -29q5 -11 7.5 -23
t4.5 -23q2 -13 5.5 -28t9.5 -32q22 -57 65.5 -105.5t96 -91t108 -80.5t101.5 -74q25 -20 56 -47.5t58.5 -59.5t46.5 -67t20 -69.5t-21 -66.5t-77 -59q-65 -32 -139 -58t-151.5 -45t-156 -29.5t-153.5 -11.5zM1203 135q-16 23 -36.5 44.5t-42.5 41.5q-21 20 -40.5 35.5
t-33.5 26.5q-45 36 -100 74t-107 83q-53 45 -94 97t-57 115q-7 25 -12 41q-7 19 -16 29q-11 11 -31 17t-58 6q-88 -2 -176 -27t-167 -68q-35 -20 -52.5 -41.5t-21 -45t4.5 -47.5t23 -48q16 -24 37 -47t44 -43q23 -21 44 -38t38 -31q45 -35 99 -72.5t105 -81.5t91.5 -94.5
t55.5 -113.5q3 -12 5.5 -22.5t4.5 -19.5q6 -19 14 -29q9 -11 26.5 -16.5t52.5 -5.5q95 2 191 29.5t178 75.5q31 18 46 39.5t17 44t-7 46t-25 46.5z" />
    <glyph glyph-name="P" unicode="P" horiz-adv-x="969" 
d="M495 268q32 -26 71.5 -56.5t72.5 -66t51.5 -77.5t9.5 -91q-8 -24 -21.5 -43t-27.5 -33.5t-25.5 -24.5t-14.5 -16q-9 -17 2 -25t50 -8h52q-18 -8 -31 -13.5t-34 -13.5h-584q21 8 34 13.5t31 13.5h52q43 0 96.5 10.5t105.5 31.5q14 6 32.5 15.5t36 23t32 31t21.5 38.5
q8 57 -8 101.5t-46.5 81.5t-72 69t-85 62.5t-85 62t-72 69t-46.5 82t-8 101.5q8 24 22 43t28 33.5t25.5 24.5t14.5 16q4 8 -7 17t-30.5 16.5t-43 12t-42.5 4.5h-51q18 8 31 13.5t35 13.5h499q46 0 74 -3t45.5 -8t28.5 -11t22 -13q22 -14 25.5 -37.5t8.5 -55.5q5 -33 15 -72
t34 -84q16 -30 33.5 -58t31.5 -53t22 -47t5 -41t-9.5 -32t-23 -21.5t-47 -12t-80.5 -3.5q-24 0 -52.5 1t-60.5 4q-65 5 -142 15zM440 310q32 -4 59 -6.5t50 -4.5q46 -3 75 -3q103 0 104 59q0 15 -6.5 32t-17.5 36.5t-25.5 40.5t-29.5 45q-41 64 -54 120q-8 28 -12.5 49
t-18.5 35t-40 20.5t-68 6.5q-26 0 -65 -3t-90 -11q-45 -46 -64 -85.5t-17.5 -74.5t20.5 -67t49.5 -63t69.5 -62t81 -64z" />
    <glyph glyph-name="Q" unicode="Q" horiz-adv-x="1247" 
d="M1104 16q21 -25 32.5 -46.5t18 -39.5t10 -32.5t8.5 -26.5q9 -23 32 -36.5t74 -16.5q-12 -5 -21 -9t-23 -9q-51 2 -88 9.5t-69 21.5q-31 14 -55 33.5t-52 44.5q-54 50 -137 107q-57 17 -106.5 33.5t-93.5 35.5q-70 30 -138 64t-135 69q-76 41 -149.5 89.5t-139.5 97.5
q-39 29 -55.5 58t-16.5 56t14 52t36.5 47t50 39.5t54.5 30.5q62 29 132.5 50t145 34.5t150 20.5t147.5 7q52 0 80 -7t42 -21t20.5 -35.5t14.5 -49.5q14 -45 38.5 -83.5t55 -73t65 -66t67.5 -61.5q28 -26 61 -53t61 -57t47.5 -63.5t21.5 -70.5q1 -24 -14 -46t-42 -40.5
t-64 -33t-80 -23.5zM622 757q-86 -1 -171 -19.5t-165 -53.5q-54 -18 -82.5 -51.5t-33 -73t16 -80.5t64.5 -74q100 -75 214.5 -148.5t231.5 -134.5q37 -20 71 -34t66.5 -24t65.5 -14.5t68 -4.5q74 0 126.5 19.5t66.5 57.5q5 28 -4 55t-27 51.5t-42 47t-49 43t-48.5 38
t-40.5 32.5q-28 25 -56.5 50t-54 52.5t-46.5 58.5t-35 68q-14 35 -15.5 61.5t-12.5 43.5t-36 25.5t-72 8.5z" />
    <glyph glyph-name="R" unicode="R" horiz-adv-x="1122" 
d="M1136 -200h-278q54 41 77 79t22.5 73t-21 67t-54 61t-76.5 55t-88.5 49.5t-90 44.5t-80.5 39q-19 -1 -34.5 -1.5t-27.5 -0.5h-22q-6 1 -12.5 1t-12.5 1q32 -26 71.5 -56.5t72 -66t51 -77.5t8.5 -91q-8 -24 -21.5 -43t-28.5 -33.5t-27.5 -24.5t-17.5 -16q-14 -17 -9.5 -25
t33.5 -8h41q-18 -8 -31 -13.5t-35 -13.5h-447q22 8 35 13.5t31 13.5h39q33 0 79 10.5t94 31.5q13 6 31 15.5t35 23t31.5 31t21.5 38.5q8 57 -11 102.5t-54.5 83.5t-83 71.5t-98 65.5t-98 65.5t-83 71.5t-54.5 83.5t-11 102.5q8 24 22 43t29 33.5t27 24.5t17 16q14 17 9 25
t-34 8h-39q18 8 31 13.5t34 13.5h380q84 0 129.5 -6t59.5 -17q13 -12 6 -33.5t-14 -52.5t-6.5 -68t17.5 -80q9 -23 20 -44.5t21.5 -41.5t19.5 -38.5t14 -35.5q9 -35 -7.5 -58.5t-64.5 -37.5q57 -29 120 -57t123 -61.5t113.5 -74.5t92.5 -94q17 -24 22.5 -44.5t5 -37t-4 -29
t-3.5 -20.5q1 -17 14 -27t46 -15q-18 -8 -31 -13.5t-35 -13.5zM377 314h26q5 -1 9.5 -1h8.5q75 0 110.5 15.5t35.5 46.5q0 16 -6 33.5t-16 37t-21.5 41.5t-22.5 46q-22 47 -24.5 85t-3.5 67q0 29 -15 44t-65 15q-23 0 -59 -3.5t-85 -10.5q-47 -46 -67.5 -85t-20.5 -74
t18 -66.5t48 -62.5t69 -62.5t81 -65.5z" />
    <glyph glyph-name="S" unicode="S" horiz-adv-x="1427" 
d="M1181 800q-30 -15 -67.5 -33.5t-73.5 -41.5t-64.5 -50.5t-40.5 -59.5t-2 -68.5t52 -77.5h-43q-51 48 -79 85.5t-46 66.5q-18 28 -35.5 50t-45.5 39q-27 17 -63 25.5t-90 8.5q-60 0 -129.5 -11t-135.5 -34t-102 -48t-38 -54q-2 -22 17 -42.5t54 -37.5q55 -27 113.5 -47
t118.5 -36t121 -30t120 -28q111 -26 221.5 -52t219.5 -58q65 -20 123.5 -42.5t108.5 -48.5t85 -54.5t44 -54.5q9 -27 1.5 -49.5t-25 -41t-43 -33.5t-52.5 -27t-53 -21t-45 -15q-118 -42 -251 -60t-263 -19q-67 0 -112 6q-26 4 -88 26q-32 11 -58 16.5t-41 5.5q-29 0 -65 -10
q-19 -5 -48 -16t-77 -28h-42q29 14 66.5 32.5t73 41.5t64.5 50t41 59t3 68t-50 77h43q29 -26 49.5 -48.5t35 -41.5t24.5 -35t18 -29q16 -26 35.5 -47t48.5 -38t71 -25.5t105 -8.5q75 0 149.5 11.5t146.5 35.5q70 23 108 50.5t37 59.5q0 34 -52 71q-54 37 -151 67
q-86 26 -172.5 47.5t-173.5 42.5q-108 26 -214.5 52t-212.5 57q-69 20 -127.5 43t-105.5 48t-80.5 53t-39.5 55q-8 38 14.5 67t58.5 50t77 36t70 25q111 38 235.5 55.5t246.5 18.5q63 0 104 -9t73 -28q28 -18 57 -18q28 0 69 11q20 5 51 16t81 28h42z" />
    <glyph glyph-name="T" unicode="T" horiz-adv-x="1189" 
d="M1274 800q-22 -11 -50 -23t-56.5 -26.5t-54.5 -33t-45 -41t-27.5 -50t-1.5 -61.5h-35q-11 32 -10 53.5t1 35.5q0 21 -0.5 37t-9.5 26q-17 20 -92 20h-175q-70 -65 -88.5 -118t-2 -99t60.5 -86.5t99.5 -80t114.5 -80t106 -85.5t73.5 -98t16.5 -117q-9 -23 -23 -41.5
t-28.5 -33t-26.5 -24.5t-16 -16q-10 -15 0 -23t46 -8h43q-18 -8 -31 -13.5t-35 -13.5h-525q22 8 35 13.5t31 13.5h44q39 0 88 9.5t97 29.5q15 6 33.5 15.5t36.5 23t33 30.5t23 38q10 64 -16.5 117t-73.5 98t-106 85.5t-114.5 80t-99.5 80t-60.5 86.5t2 99t88.5 118h-148
q-44 0 -79 -2.5t-61 -7.5q-35 -7 -73.5 -20.5t-73.5 -33.5q-34 -20 -55.5 -46.5t-17.5 -61.5h-35q-3 34 9.5 62t34 50.5t49.5 40.5t58.5 32.5t60 26.5t52.5 23h1010z" />
    <glyph glyph-name="U" unicode="U" horiz-adv-x="1180" 
d="M736 773q18 8 31 13.5t33 13.5h345q-21 -8 -34 -13.5t-30 -13.5h-37q-29 0 -77 -12t-101 -36q-12 -6 -28 -15t-32 -22t-29 -29.5t-19 -37.5q-6 -44 9.5 -84t44 -76.5t67 -69.5t78.5 -62.5t78 -55.5t66 -48q91 -72 118.5 -129.5t7.5 -98.5t-82.5 -75.5t-156.5 -63.5
q-87 -26 -177 -41.5t-181 -16.5q-39 0 -64.5 3.5t-39 10.5t-17 17t0.5 24t9.5 30t9 35t2.5 40t-8 45q-13 40 -34.5 73t-48.5 61.5t-58.5 54t-62.5 51.5q-26 21 -62 46t-74 53.5t-74 60.5t-62.5 67.5t-39 74t-3.5 80.5q8 22 22 41t29 34t28.5 25.5t19.5 17.5q13 14 8.5 21
t-32.5 7h-36q17 8 30 13.5t34 13.5h421q-21 -8 -34 -13.5t-31 -13.5h-37q-30 0 -72.5 -9t-87.5 -29q-15 -6 -33.5 -16t-36.5 -23.5t-32.5 -30.5t-22.5 -38q-8 -46 8 -89t47.5 -82.5t73.5 -75.5t85.5 -67.5t84.5 -59.5t70 -52q34 -27 67 -60t56 -70t29.5 -65.5t8.5 -49.5
q3 -20 5.5 -37t10.5 -30q8 -14 27.5 -20.5t57.5 -6.5q48 0 108 10.5t123 31.5q62 21 105 47.5t57 59.5q7 16 4.5 38t-18 50t-45.5 61t-78 72q-27 21 -64.5 47t-77.5 55t-78 62.5t-66 70t-41.5 76.5t-4.5 84q8 23 22.5 41.5t29.5 33t27.5 24.5t17.5 16q14 16 11 23.5t-31 7.5
h-37z" />
    <glyph glyph-name="V" unicode="V" horiz-adv-x="1046" 
d="M1120 800q-21 -8 -33.5 -13.5t-30.5 -13.5q-36 -5 -73 -13t-71 -20q-25 -9 -51 -19.5t-50 -24t-44.5 -29.5t-35.5 -35q-31 -40 -35 -78.5t9.5 -75t40 -71t56.5 -67.5t59 -64t48 -60q39 -63 49.5 -111t-1.5 -86.5t-43.5 -68.5t-75.5 -55t-97 -48t-109 -47h-27
q80 51 113.5 97t31.5 88.5t-34.5 83t-84 79.5t-117 77t-134 76.5t-134.5 78.5t-119 82t-87.5 87t-39.5 94q1 16 6.5 29t12 23t12.5 16.5t8 10.5q8 11 12.5 20t3.5 15q-2 13 -37 16q17 8 30 13.5t34 13.5h401q-21 -8 -34 -13.5t-31 -13.5q-83 -6 -135 -23q-26 -8 -48 -18.5
t-39 -23.5q-24 -18 -39 -46.5t-1 -66.5q39 -71 97 -122.5t126.5 -93.5t142.5 -78t144.5 -76t133 -88.5t108.5 -114.5q7 59 -13.5 107.5t-55 91.5t-75.5 83t-73.5 83.5t-49.5 92t-4 108.5q8 21 21.5 38.5t28 32t28.5 26t24 19.5q13 11 23 20.5t17 19.5q14 20 -18 27l-7 2
q17 8 30 13.5t34 13.5h302z" />
    <glyph glyph-name="W" unicode="W" horiz-adv-x="1117" 
d="M1111 770q-31 0 -76 -13q-23 -7 -54.5 -19.5t-63.5 -31.5q-11 -6 -27 -17t-32 -25.5t-29 -33.5t-19 -42q-3 -33 3.5 -62.5t20 -56t33 -50.5t42.5 -46q23 -23 48 -44.5t48 -43.5q24 -21 46 -43.5t39 -45.5q30 -43 44.5 -79t16 -67t-9.5 -57t-31 -48t-48.5 -41.5
t-61.5 -36.5q-34 -18 -71.5 -35t-76.5 -35h-34q74 42 121.5 78.5t63.5 76t-4 85t-81 105.5q-44 42 -95 78t-105 70q-49 30 -98 59t-95 59q13 -13 28 -27t31 -28q23 -20 46 -40.5t46 -42.5q46 -45 81.5 -91.5t43.5 -96.5q5 -33 -1 -61t-20 -51t-34.5 -42t-44.5 -35
q-25 -17 -52 -30t-55 -24q-27 -11 -53.5 -21.5t-49.5 -20.5h-71q106 62 156 110t50.5 93t-45 93.5t-130.5 111.5q-32 24 -68 47t-73.5 46.5l-75 47t-71.5 47.5q-34 25 -64.5 50.5t-55 52.5t-42 56t-24.5 59q-1 15 -1 28t1.5 25t6.5 23t15 21q11 11 14 13q4 4 13.5 7t20.5 6
t20 5.5t12 5.5q12 12 14 17q2 3 0 5t-9 2.5t-25 0.5q13 6 23 10.5t18.5 8t16.5 7t19 7.5h293q-32 -12 -47 -18.5t-33 -14.5h-14q-14 0 -34.5 -4t-44.5 -13q-50 -17 -85 -41q-9 -6 -20 -16.5t-20.5 -24.5t-14.5 -32t-1 -40q18 -49 48.5 -89.5t69.5 -75.5t84.5 -65.5
t93.5 -58.5q48 -29 96.5 -57.5t94.5 -59.5q42 -29 79.5 -60.5t67.5 -69.5q-19 65 -61.5 119.5t-93.5 105.5q-27 28 -54 54.5t-52 54.5q-26 28 -47.5 56.5t-38.5 60.5q-5 7 -9 12.5t-8 10.5q-11 15 -17.5 28t-9.5 33q-4 20 -2 33.5t12 33.5q8 18 20.5 34t27.5 30l12.5 12.5
t8.5 10.5q11 14 10 16t-8 2h-27q14 6 24 10.5t18.5 8t16.5 7t19 7.5h307q-32 -12 -47 -18.5t-33 -14.5h-20q-16 0 -36.5 -4t-44.5 -13q-23 -8 -46.5 -20t-43.5 -26q-12 -9 -24 -21.5t-19.5 -28t-10 -34.5t5.5 -41q24 -47 57 -85.5t72.5 -71.5t84 -62t90.5 -56
q47 -27 93 -54.5t89 -58.5q41 -29 77.5 -61t66.5 -70q-9 28 -28 53.5t-42 48.5t-48 44.5t-46 41.5q-16 15 -32 29.5t-32 29.5q-32 29 -61 59.5t-50.5 64.5t-33.5 72t-9 83q6 23 18.5 42t27.5 34.5t30.5 27.5t27.5 21q11 8 21.5 16t19.5 15q17 15 17 18q0 5 -9 6t-35 1
q28 13 57 19t51 14h239q-32 -12 -47 -18.5t-33 -14.5z" />
    <glyph glyph-name="X" unicode="X" horiz-adv-x="1077" 
d="M661 356q66 -34 123.5 -67.5t110 -71.5t102 -82.5t100.5 -100.5q30 -32 38 -59t5.5 -48.5t-11 -36.5t-12.5 -24q-8 -17 -2 -27t35 -12q-18 -8 -31 -13.5t-35 -13.5h-419q21 8 34 13.5t31 13.5q45 2 81 9q30 6 64 20q36 16 54 28q12 8 20.5 17t13.5 17q4 6 7.5 22.5
t-7.5 42.5q-25 48 -63.5 84.5t-84.5 66.5t-94.5 55.5t-93.5 50.5q20 -34 29 -70.5t4.5 -71.5t-22 -68t-49.5 -59q-26 -20 -47 -34.5t-32 -22.5t-21.5 -15t-21.5 -15q-17 -12 -29 -21.5t-17 -17.5q-11 -15 38 -18q-18 -8 -31 -13.5t-35 -13.5h-347q22 8 35 13.5t31 13.5
q23 2 46.5 6t49.5 10q42 10 84.5 22.5t83.5 28.5q42 17 86 41.5t75 58.5t42 72t7.5 77t-19.5 77t-39 72q-58 30 -120.5 59t-122.5 63t-114.5 74t-96.5 92q-23 28 -30 52.5t-5.5 44t6.5 34t7 23.5q2 18 -8.5 27.5t-43.5 11.5q18 8 31 13.5t35 13.5h452q-22 -8 -35 -13.5
t-31 -13.5q-32 -2 -61.5 -6.5t-56.5 -12.5q-27 -9 -48.5 -18t-35.5 -20q-20 -14 -32 -34t-7 -46q17 -44 45.5 -76.5t63 -58.5t73 -48.5t76.5 -45.5q-12 34 -18.5 60.5t-1.5 52t24.5 52t59.5 60.5q23 20 44 33.5t32 20.5q11 8 22 15.5t22 15.5q24 16 35 27q18 16 15 22
q-3 5 -53 7q18 8 31 13.5t34 13.5h347q-22 -8 -35 -13.5t-31 -13.5q-23 -2 -46.5 -5t-48.5 -9q-36 -8 -74 -19.5t-74 -25.5q-18 -7 -40 -17.5t-45.5 -23.5t-45.5 -29.5t-40 -35.5q-24 -26 -31 -47.5t-2.5 -41t18 -38t30 -38t34 -41t30.5 -46.5z" />
    <glyph glyph-name="Y" unicode="Y" horiz-adv-x="1034" 
d="M765 800h343q-22 -8 -35 -13.5t-31 -13.5h-19q-19 0 -90 -17q-35 -9 -72 -21t-73 -28q-18 -8 -37.5 -18t-39 -23t-37 -28.5t-30.5 -33.5q-35 -50 -32 -100.5t25.5 -99.5t56 -94.5t60.5 -85.5q28 -26 58 -52t53 -55.5t34.5 -64.5t2.5 -79q-9 -23 -23.5 -41.5t-29.5 -33
t-27.5 -24.5t-17.5 -16q-14 -15 -8.5 -23t34.5 -8h32q-18 -8 -31 -13.5t-34 -13.5h-419q22 8 35 13.5t31 13.5h35q31 0 74 9.5t88 29.5q14 6 32 15.5t35 23t32 30.5t23 38q13 36 9.5 64t-20.5 54.5t-47.5 54.5t-72.5 64q-46 24 -104.5 50t-121 55t-125.5 62t-117.5 71.5
t-96.5 83t-63 97.5q-5 18 -3.5 33t5.5 26.5t9 19.5t8 13q5 9 6 20t1 24q2 8 -26 8q18 8 31 13.5t35 13.5h421q-22 -8 -35 -13.5t-31 -13.5h-22q-34 0 -96 -17q-30 -8 -58.5 -20t-49.5 -28q-9 -7 -17 -16.5t-12.5 -21.5t-4.5 -26.5t8 -31.5q34 -60 89.5 -107t120.5 -84.5
t132.5 -69t125.5 -61.5q-23 36 -47 72t-38.5 73.5t-13.5 77.5t27 85q25 35 56.5 60.5t51.5 42.5q13 11 24 20t19 17q18 16 18 25q0 10 -39 10q18 8 31 13.5t35 13.5z" />
    <glyph glyph-name="Z" unicode="Z" horiz-adv-x="1325" 
d="M1164 800q-74 -26 -147.5 -49.5t-138 -50.5t-116.5 -60.5t-81.5 -79.5t-33.5 -107t27 -144q35 -94 46 -159.5t-7.5 -115t-69.5 -90t-140 -84.5h494q57 0 118 10.5t116 31.5q27 10 56 25.5t52 36.5t36.5 47t10.5 58q10 -2 16 -2t16 -2q6 -40 -6 -72t-36.5 -57.5t-58 -46
t-68.5 -36.5t-69 -29t-59 -24h-981q21 8 34 13.5t32 13.5q63 26 120 50.5t103.5 51.5t80.5 59t50.5 74t14.5 96.5t-27 125.5q-35 99 -39.5 164t24 114t91 89.5t160.5 88.5h-386q-96 0 -167 -17q-35 -9 -67 -21t-58 -29q-13 -8 -26.5 -20t-24 -27.5t-16.5 -34.5t-3 -41h-34
q-6 37 5 66.5t33 54t52 43.5t62 34.5t63 28t55 23.5h892z" />
    <glyph glyph-name="bracketleft" unicode="[" horiz-adv-x="1273" 
d="M1264 -200h-1038q87 43 138 82.5t72 78t14.5 77t-35.5 79.5t-77.5 86.5t-111.5 96.5t-111.5 96.5t-77.5 86.5t-35.5 79.5t14 77t72 78t138.5 82.5h1038q-17 -7 -30 -12t-24.5 -10t-22 -10t-23.5 -12q-57 0 -125.5 -0.5t-142.5 -0.5t-151 -1t-150.5 -1t-142 -0.5
t-125.5 -0.5q-77 -56 -105 -106.5t-21.5 -96.5t41 -88.5t82.5 -83.5t103.5 -81t104 -81t82.5 -84t40.5 -89t-22 -96t-105.5 -106q57 0 125.5 0.5t142 0.5t150.5 1t150.5 1t142 0.5t125.5 0.5q-13 -7 -23.5 -12t-21.5 -10t-24 -10.5t-30 -11.5z" />
    <glyph glyph-name="backslash" unicode="\" horiz-adv-x="1166" 
d="M252 800q-67 -27 -90 -59.5t-14 -68t43.5 -72.5t82.5 -72.5t104 -68t106.5 -58.5t91 -44.5t57.5 -26.5t63.5 -28.5t108.5 -50t131.5 -66.5t131 -77.5t109 -82.5t64.5 -82.5t-3 -77t-93 -65.5h-146q73 29 93 65.5t3 77t-64.5 82.5t-109 82.5t-131 77.5t-131.5 66.5
t-108.5 50t-63.5 28.5t-57.5 26.5t-91 44.5t-106 58.5t-103.5 68t-82.5 72.5t-43.5 72.5t14 68t90 59.5h145z" />
    <glyph glyph-name="bracketright" unicode="]" horiz-adv-x="1274" 
d="M100 800h1039q-87 -43 -138.5 -82.5t-72 -78t-14 -77t35.5 -79.5t77.5 -86.5t111.5 -96.5q63 -52 111.5 -97t77.5 -86t35.5 -79.5t-14.5 -77t-72 -78t-138 -82.5h-1039q18 7 31 12t24 10l22 10t24 12h127h146t156 0.5t156 0.5h146h127q77 56 105 106.5t21.5 96.5
t-41 88.5t-82.5 83.5t-103.5 81t-103.5 81t-82.5 83.5t-41 88.5t21.5 96.5t105 106.5h-127h-146t-156 -0.5t-156 -0.5h-146h-127q13 7 23.5 12t22 10t24.5 10t30 12z" />
    <glyph glyph-name="a" unicode="a" horiz-adv-x="811" 
d="M756 -30q-66 -31 -135.5 -53.5t-141.5 -38.5q-22 -5 -36 -4t-25 4t-21.5 6.5t-23.5 3.5q-21 0 -31 0.5t-13 3.5t0 9.5t9 18.5q12 24 21 55t-2 70q-7 24 -17 45t-15 39q-8 25 -6.5 41.5t17.5 38.5q8 11 15.5 23t20.5 25.5t34.5 28t58.5 30.5q-8 8 -12.5 13t-10.5 13
q-19 25 -26.5 39.5t-9 24t0 16.5t1.5 16q-1 19 -13 28.5t-48 9.5q-28 0 -60 -8t-64 -20q-32 -13 -51 -27t-24 -30q-4 -13 -3 -21t4 -21q5 -17 7.5 -30t-1.5 -22q-6 -18 -38 -18q-34 0 -69 19q-17 9 -29.5 22t-17.5 30q-15 62 143 115q78 25 160 38.5t164 13.5
q54 0 77.5 -7.5t28.5 -22.5q4 -11 -3.5 -27t-12.5 -40q-2 -8 -4 -14t0 -14.5t10.5 -22t29.5 -37.5q29 -33 62.5 -61t68 -54.5t69 -53.5t65.5 -58q23 -23 34.5 -42t15.5 -34t3.5 -25t-0.5 -16q-1 -11 -1 -17.5t2 -10.5q5 -8 18 -8q14 0 28 6q13 5 38 18t50 35q1 -13 -1 -21
t-8 -20q-38 -24 -81.5 -43.5t-89 -34t-91.5 -22.5t-90 -9q-20 -1 -21.5 5.5t11.5 18.5q13 13 38.5 34t41.5 51zM766 17q-11 42 -40.5 77.5t-66 66.5t-76 58t-70.5 52q-41 -22 -62.5 -37.5t-29.5 -24.5q-26 -30 -15 -67q5 -17 16.5 -36t25.5 -40q17 -26 28.5 -48t22.5 -39
q12 -17 26 -26.5t38 -8.5q56 2 104.5 24t98.5 49z" />
    <glyph glyph-name="b" unicode="b" horiz-adv-x="938" 
d="M327 239q-7 45 26.5 67.5t91.5 22.5q64 -1 126 -18t122 -40q73 -29 145 -69t130 -90q27 -24 33.5 -45.5t-1.5 -41t-27 -35.5t-41 -29.5t-45 -23t-39 -15.5q-85 -30 -175.5 -45.5t-181.5 -16.5q-58 0 -89 14q-15 7 -26 17.5t-23 24.5q43 48 45.5 90.5t-21 80.5t-66 73.5
t-88 70.5t-87 70t-64.5 73q-8 19 -9 34t2 26.5t7.5 19.5t6.5 13q10 18 6 23q-4 7 -22 7q-20 0 -63 -8q3 5 5 8.5t7 8.5q80 15 159 28t160 26h34q-78 -39 -117.5 -74t-43 -71.5t27.5 -79t95 -96.5zM367 209q16 -13 40 -30.5t48.5 -38.5t45.5 -44.5t32 -48.5t7.5 -51.5
t-28.5 -51.5q8 -12 15 -21t18 -15q22 -13 63 -13q35 0 89.5 12t107.5 37q27 12 46 27t27.5 33t5 38t-22.5 42q-39 47 -95 78t-114 53q-119 45 -193 45q-42 0 -65 -13q-18 -9 -27 -38z" />
    <glyph glyph-name="c" unicode="c" horiz-adv-x="868" 
d="M941 131q38 -36 37 -68t-23 -57.5t-55.5 -44.5t-60.5 -31q-80 -33 -173.5 -51t-184.5 -19q-36 0 -53 5.5t-24.5 17.5t-10.5 30t-12 41q-16 42 -47 77.5t-68 66.5t-76.5 58.5t-72.5 53.5q-20 16 -41.5 36t-39 42.5t-28 46t-8 46.5t20.5 44t58 38q50 21 105 38.5t113 30.5
t116 20.5t114 7.5q32 0 51.5 -3t31 -9.5t15.5 -16.5t5 -23q1 -26 5 -52.5t8 -54.5q2 -14 1 -25t-7 -19q-7 -8 -19.5 -12.5t-33.5 -4.5q-28 0 -54 7t-47 21q-12 8 -23 22t-9 35q1 22 4.5 38t0.5 27t-17.5 16.5t-43.5 5.5q-55 -1 -108 -16t-103 -38q-43 -20 -54 -44.5t-4 -50
t26.5 -49.5t38.5 -42q31 -30 69.5 -56.5t80 -51.5t83 -49.5t79.5 -51.5q24 -17 48.5 -33.5t51 -29.5t55 -20.5t59.5 -7.5q46 1 93 13t80 36q23 17 30.5 46.5t-18.5 73.5q12 -3 19.5 -5t19.5 -5z" />
    <glyph glyph-name="d" unicode="d" horiz-adv-x="692" 
d="M568 -77q-48 -17 -96.5 -28.5t-89.5 -19.5q-83 -15 -141 -15q-28 0 -43.5 4t-23 11.5t-9.5 19t-2 26.5q-1 30 -10.5 68.5t-44.5 86.5q-18 24 -36.5 47t-34 44.5t-26 42t-11.5 40.5q-2 40 39.5 59.5t116.5 19.5q46 0 91 -9t96 -28q-26 25 -40.5 41t-25.5 41q-8 19 -9 34
t2 26.5t7.5 19.5t6.5 13q4 8 6 14t0 9q-4 7 -22 7q-10 0 -25.5 -2t-36.5 -6q3 5 5.5 8.5t7.5 8.5q79 15 158 28l158 26h34q-72 -36 -108.5 -69t-45.5 -63.5t4.5 -59.5t41.5 -58.5t65.5 -59.5t76.5 -61.5t74.5 -66t58.5 -73.5q9 -20 10 -35.5t-1.5 -27.5t-7 -20t-6.5 -12
q-5 -9 -6.5 -14.5t0.5 -9.5q4 -7 21 -7q18 0 64 8q-3 -5 -6 -8l-8 -8q-79 -15 -158 -28.5t-159 -26.5h-34q25 9 42.5 16.5t31 15t25 15t24.5 16.5zM603 -43q23 36 15 69.5t-31.5 62.5t-55 53.5t-54.5 42.5t-49.5 32t-55.5 28t-56 23.5t-53 17.5q-51 13 -88 13
q-33 0 -52.5 -9t-22.5 -29q-2 -12 6 -27.5t23.5 -34t37 -40t46.5 -45.5q49 -49 73 -86t41 -63q9 -13 17 -23t18 -16.5t24 -9.5t34 -3q35 0 84.5 11t98.5 33z" />
    <glyph glyph-name="e" unicode="e" horiz-adv-x="922" 
d="M153 291q39 -35 82.5 -65t89 -58t91.5 -54t90 -53q26 -16 53.5 -31t56 -27t58.5 -19t62 -7q42 1 82.5 9.5t70.5 26.5t40 48t-18 74q14 -5 22.5 -7.5t22.5 -6.5q31 -32 31 -60t-17 -50.5t-44 -40t-49 -29.5q-39 -21 -85.5 -36t-96.5 -25t-101 -15t-99 -5q-38 0 -57 5.5
t-28 17.5t-12.5 29.5t-12.5 40.5q-16 41 -45.5 75t-65 64t-73 56.5t-70.5 52.5q-19 15 -42 36t-43 44.5t-33 48.5t-12.5 49t18 46t58.5 40q49 21 103 38.5t110.5 30t114 19.5t112.5 7q36 0 55.5 -4.5t29 -13.5t12.5 -23t5 -32q3 -30 15.5 -57.5t30 -52t38.5 -46t43 -40.5
h-593zM112 333h398q-29 32 -39 54t-15 35q-9 20 -15 36t-16 28q-11 11 -26 17t-41 6q-38 0 -91 -12t-100 -35q-48 -23 -66 -55.5t11 -73.5z" />
    <glyph glyph-name="f" unicode="f" horiz-adv-x="783" 
d="M346 276q20 -16 48.5 -35.5t59 -41.5t59.5 -47t50.5 -53t32 -58t4.5 -62q-6 -16 -16 -28.5t-19 -22.5t-16 -17.5t-8 -11.5q-3 -11 7 -16t38 -5h74q-12 -5 -20.5 -9t-22.5 -9h-490q14 5 22.5 9t20.5 9h37q18 0 39.5 2.5t46.5 7.5q49 9 88 26q18 8 39.5 24.5t31.5 40.5
q6 32 -4.5 62t-32 58t-50.5 53t-59.5 47t-59 41.5t-48.5 35.5h-160q-12 11 -19.5 18t-18.5 18h160q-9 8 -14 14t-12 15q-26 34 -18.5 63t41.5 51q49 32 105.5 48.5t112.5 27.5q60 13 122.5 21t125.5 8q48 0 69 -8.5t29 -25.5q10 -20 -19 -49q-12 -14 -44 -28
q-29 -13 -56 -13q-10 0 -20 1.5t-20 6.5q-10 4 -19 12.5t-12 22.5t-4.5 22.5t-7.5 13.5q-13 10 -46 10q-20 0 -43 -3.5t-47 -9.5q-25 -6 -48 -15t-41 -22q-9 -6 -20 -17.5t-16 -28t-1.5 -38t22.5 -47.5q8 -10 13.5 -16t14.5 -16h212q11 -11 18.5 -18t19.5 -18h-211z" />
    <glyph glyph-name="g" unicode="g" horiz-adv-x="939" 
d="M256 252q-46 11 -88.5 25t-78.5 33t-61 40.5t-28 41.5q-3 25 13 44.5t40 33.5t51 24t47 16q72 23 151 36t159 14q51 0 74.5 -8t30.5 -24h152q33 0 37 -2q4 0 0 -4q-2 -2 -8 -6l-15 -10q-10 -7 -16.5 -11.5t-11.5 -6.5q-3 -2 -12 -4q-10 -2 -42 -2h-93q2 -18 3 -41t9 -52
q9 -32 15 -60t-5 -51q-12 -23 -48.5 -34.5t-101.5 -11.5q-27 0 -57 3t-65 8q-10 -19 -3 -34q5 -14 20 -25q5 -4 13.5 -8t20.5 -8q11 -5 27.5 -7.5t37.5 -4.5q24 -2 114 -3q54 -1 108.5 -2t109.5 -5q83 -6 154 -35q36 -14 61 -31.5t33 -38.5q23 -58 -116 -107
q-109 -38 -225 -56t-231 -18q-76 0 -111.5 10.5t-50.5 33.5q-16 25 5 53q10 13 22 24q11 9 25.5 22t30.5 30q2 2 16.5 15.5t31.5 38.5q-26 8 -47.5 15t-35.5 13q-32 14 -48 29q-19 15 -29 41q-4 12 -0.5 28.5t16.5 38.5zM447 83q-8 -13 -15.5 -25t-12.5 -23q-11 -19 -16 -41
q-5 -24 25 -42q26 -16 72 -23.5t121 -7.5q61 0 123 6t120 26q93 30 87 68q-2 14 -16.5 23t-37.5 15q-23 5 -66 8t-104 5l-140 4t-140 7zM390 536q-29 0 -68.5 -7.5t-81.5 -22.5t-73 -37.5t-32 -54.5q-1 -20 9.5 -37.5t28.5 -33t41.5 -28.5t49.5 -24q39 -17 75 -25.5t68 -8.5
q58 0 64 29q3 14 -9.5 36.5t-25.5 54.5q-9 20 -11 37.5t-1 33.5t4.5 29.5t6.5 24.5q4 17 -4.5 25.5t-40.5 8.5z" />
    <glyph glyph-name="h" unicode="h" horiz-adv-x="871" 
d="M357 560q-81 -40 -120 -76.5t-39.5 -75t34 -82t99.5 -96.5q2 30 12 49.5t25 27.5q15 9 35 13t44 4q55 0 118 -21q32 -11 66 -27t73 -39q27 -16 69.5 -45t87.5 -71q25 -24 42.5 -42.5t25 -36.5t4.5 -37t-19 -43q-14 -22 -32 -36.5t-26 -22.5q-14 -12 -11 -18q3 -7 49 -7
q-12 -5 -20.5 -9t-22.5 -9h-327q14 5 22.5 9t19.5 9h16q47 0 85 9q19 5 38.5 12t36.5 17q7 4 22.5 15t28.5 31q16 24 19 43t-4.5 37t-25 36.5t-42.5 42.5q-39 38 -74.5 62t-56.5 35q-40 23 -81 35q-39 12 -73 12q-35 0 -59 -13q-23 -14 -26 -52q16 -13 37 -28.5t42.5 -33
t40 -38t29.5 -42.5t12 -46t-12 -50q-16 -23 -34.5 -37.5t-24.5 -20.5q-12 -11 -7 -19q4 -7 55 -7q-12 -5 -20.5 -9t-22.5 -9h-330q14 5 22.5 9t20.5 9q45 0 89 9q13 2 27.5 7t30.5 12t37.5 21t35.5 35q19 38 7 75.5t-43 74t-74 71.5t-85.5 68t-78.5 63t-53 56
q-9 19 -10.5 35t1 27.5t7 19.5t6.5 13q4 9 6 15t0 9q-4 7 -22 7q-13 0 -59 -8q3 5 5.5 8.5t7.5 8.5q78 15 155.5 28.5t155.5 26.5h33z" />
    <glyph glyph-name="i" unicode="i" horiz-adv-x="661" 
d="M324 327q20 -18 54.5 -42.5t73 -53t75.5 -60.5t63.5 -66.5t36 -69.5t-7.5 -70q-14 -21 -28 -35t-16 -21q-5 -15 19 -21q22 -7 127 -7q-12 -5 -20.5 -9t-22.5 -9q-88 0 -157 -0.5t-133.5 -1t-133.5 -1t-157 -0.5q14 5 22.5 9t20.5 9q106 0 156 6q52 6 98 21q23 8 47.5 22
t38.5 35q15 28 13 52t-14.5 45t-31 39.5t-35.5 37.5q-42 37 -77.5 60.5t-56.5 34.5q-29 14 -63 22q-32 6 -73 6q-22 0 -46.5 -2t-51.5 -6q-14 5 -22.5 9t-21.5 9q95 14 189 27.5t190 27.5q10 0 -1 0.5t-26.5 1t-26.5 1t-1 0.5zM259 533q64 0 78 -15q13 -13 -22 -35
q-30 -20 -91 -35q-60 -15 -125 -15q-33 0 -59 3.5t-43 11.5q-34 15 -3 35q34 21 115 35q40 8 78 11.5t72 3.5z" />
    <glyph glyph-name="j" unicode="j" horiz-adv-x="751" 
d="M450 401q30 -56 79 -110t102 -108.5t101 -109.5t75 -112q4 -36 -20 -59t-59 -37t-72.5 -22t-59.5 -13q-103 -24 -213 -33.5t-219 -9.5q-118 0 -145 13q-28 12 -5 25q22 12 68 23q45 9 87 9q17 0 33 -1.5t30 -3.5q10 -2 25 -6.5t33 -12.5q35 -16 77 -16q34 0 75 7
q44 6 82 23q18 8 40.5 26t28.5 45q1 28 -10 60t-29 64.5t-42 64.5t-49 60t-49 51t-43 38q-37 29 -60 47t-37 26q-22 13 -45 17q-12 2 -26.5 3.5t-31.5 1.5q-36 0 -84 -6q-9 4 -15 6.5t-14 6.5q85 11 168 21.5t168 21.5h56zM507 581q29 0 45 -3t23 -9q11 -10 -18 -27t-81 -27
q-27 -6 -53.5 -8.5t-55.5 -2.5q-27 0 -47.5 2.5t-32.5 8.5q-26 11 2 27t96 27q66 12 122 12z" />
    <glyph glyph-name="k" unicode="k" horiz-adv-x="833" 
d="M349 560q-48 -24 -88 -46.5t-61 -50.5t-17.5 -64t43.5 -86q24 -30 54 -56t62.5 -50t65 -47.5t60.5 -48.5q9 16 15 28.5t10 24t7 24t8 28.5q9 35 7 42q-2 6 -9 12q-10 9 -31 17q-10 4 -22 5.5t-26 2.5l-8 8l-8 8h284l8 -8l8 -8q-57 -2 -84 -12q-28 -13 -36 -41
q-5 -16 -8 -28.5t-6 -24.5t-7.5 -24.5t-11.5 -28.5q33 -15 66.5 -30t65.5 -32.5t62 -38t55 -46.5q14 -15 20.5 -27t8.5 -21.5t1 -16.5t-1 -11q-1 -12 -0.5 -19.5t5.5 -10.5q6 -5 51 -5q-12 -5 -20.5 -9t-22.5 -9h-317q14 5 22.5 9t20.5 9q26 0 49 5q22 6 38 15q11 5 18 14.5
t7 21.5q-8 36 -32.5 63t-56.5 47.5t-67 36.5t-63 30q22 -23 37.5 -40.5t21.5 -34.5t2 -35t-19 -40q-14 -22 -32 -36t-26 -21q-15 -15 -12 -20q4 -6 58 -6q-12 -5 -20.5 -9t-22.5 -9h-332q14 5 22.5 9t19.5 9q26 0 49 1.5t44 6.5q14 3 27.5 7t27.5 10q19 8 41 22t36 34
q20 35 8.5 73t-41.5 75.5t-72.5 74.5t-85 71t-79 63.5t-54.5 52.5q-10 20 -11.5 36t1.5 28t7.5 20t6.5 12q4 9 6.5 15t0.5 9q-3 7 -22 7q-8 0 -21.5 -2t-33.5 -6q4 8 11 17q76 15 152 28.5t154 26.5h32z" />
    <glyph glyph-name="l" unicode="l" horiz-adv-x="730" 
d="M595 678q-121 -42 -186 -80.5t-88 -75.5t-11 -73t45.5 -73t81 -75t95 -80t89 -87.5t61.5 -97.5q15 -24 13.5 -43t-10 -32.5t-18 -22t-10.5 -11.5q-5 -14 21 -21q6 -2 28.5 -6.5t52 -9t62.5 -8.5t61 -4q-12 -5 -20.5 -9t-22.5 -9h-701q14 5 23 9t20 9q98 0 148 6
q52 6 96 21q23 8 47 22t38 35q19 38 6 84t-45.5 96t-77 100t-88.5 96t-81 85t-54 66q-9 19 -10.5 34.5t0.5 27t5 19.5t4 13q3 19 -12 24q-17 6 -53 6q-20 0 -48.5 -1.5t-64.5 -6.5q-3 10 -4 18q135 14 269 27.5t269 27.5h70z" />
    <glyph glyph-name="m" unicode="m" horiz-adv-x="932" 
d="M986 -42q-6 -10 -13.5 -18t-15.5 -16t-14.5 -15t-10.5 -13q-3 -3 -1 -4t7.5 -1.5t22.5 -0.5q-12 -6 -21.5 -10.5t-17.5 -8t-16.5 -7t-18.5 -7.5h-227q16 6 27 10.5t19.5 8t16 7t15.5 7.5h9q14 0 32.5 4t41.5 13q15 5 32.5 14.5t32.5 22.5q8 6 21 23t11 46
q-12 48 -46 87.5t-77 74.5q-22 17 -44 33.5t-44 32.5q-47 33 -80 63q-23 20 -41 44.5t-27 53.5q-3 11 -5 21l-4 20q-2 5 -2.5 8.5t-2.5 6.5q-3 5 -8 7.5t-14 2.5q-12 0 -28 -4.5t-34 -14.5q-17 -10 -36 -27.5t-26 -43.5q1 -2 1 -3.5t1 -3.5q5 -9 9 -15t12 -16
q18 -18 39.5 -35.5t45.5 -35.5t49 -36.5t49 -38.5q49 -38 87.5 -82t51.5 -98q2 -23 -7 -42t-25 -35l-12 -12q-4 -5 -8 -8.5t-7 -7.5t-5.5 -7t-4.5 -5q-2 -3 1 -5q2 -1 8.5 -1.5t24.5 -0.5q-12 -6 -21.5 -10.5t-17.5 -8t-16.5 -7t-18.5 -7.5h-232q16 6 27 10.5t19.5 8t16 7
t15.5 7.5q38 0 73 13q19 7 38 16.5t36 22.5q4 3 10 9t11.5 15t9.5 20.5t3 26.5q-13 48 -46.5 87.5t-76.5 74.5q-22 17 -44.5 33.5t-44.5 32.5t-42.5 31.5t-37.5 31.5q-23 21 -41 45.5t-28 53.5q-3 12 -6 22q-2 6 -2.5 11t-1.5 10q-2 5 -2.5 8t-2.5 6q-4 10 -19 10
q-12 0 -29 -5t-35 -16q-28 -16 -44 -33.5t-18 -36.5q17 -23 39 -45t47 -43q25 -20 51.5 -40.5t52.5 -41.5q53 -42 96 -88.5t59 -106.5q2 -23 -7 -41.5t-23 -34.5q-4 -5 -7.5 -8t-5.5 -5l-9.5 -9.5l-8.5 -8.5q-9 -9 -11 -12q-1 -1 2 -3q3 -1 10 -1.5t25 -0.5l-21 -10.5
t-17.5 -8t-16.5 -7t-19 -7.5h-227q32 12 46.5 18.5t31.5 14.5q31 0 60 10q14 5 31.5 12.5t33.5 18.5q17 11 35 31.5t16 50.5q-10 43 -39.5 79t-67 67t-77.5 58.5t-71 53.5q-34 28 -53.5 51t-30 41.5t-14 32t-3.5 22.5q-1 6 -0.5 11t0.5 10q0 3 0.5 6.5t-0.5 5.5q-1 7 -10 7
q-6 0 -16 -2.5t-27 -10.5q4 13 7 19.5t9 14.5q68 27 137 46.5t139 37.5h33q-21 -11 -36 -17.5t-29 -12.5q-18 -8 -36.5 -17.5t-34 -22t-28 -28t-18.5 -36.5q12 15 26 26.5t28 20.5q17 11 31 18t20 9q30 14 62.5 25t62.5 19t52.5 12t34.5 4q24 0 15 -14q-4 -6 -10 -12
q-3 -4 -7.5 -7.5t-9.5 -8.5q-18 -18 -36.5 -42t-18.5 -56q36 45 86 70.5t103 41.5q45 14 80.5 21t52.5 7q21 0 17 -11q-3 -8 -19 -22q-4 -4 -8.5 -7.5t-9.5 -8.5q-15 -15 -28.5 -33t-17.5 -40q-2 -11 -1 -24.5t7.5 -30.5t20 -36.5t37.5 -41.5q17 -15 37 -30.5t42 -31.5
t44.5 -32.5t44.5 -34.5q43 -35 77.5 -75.5t47.5 -89.5q2 -17 -2.5 -31t-12.5 -25z" />
    <glyph glyph-name="n" unicode="n" horiz-adv-x="854" 
d="M210 416q36 36 85 62.5t102.5 44.5t108 27t103.5 10q26 1 31.5 -6.5t-2.5 -21.5q-4 -7 -11.5 -16t-14.5 -20.5t-12.5 -25.5t-5.5 -30q0 -11 2 -25.5t9.5 -31.5t22 -37t39.5 -42q34 -31 79 -62t87.5 -66t77 -74.5t46.5 -87.5q2 -32 -13.5 -54.5t-25.5 -33.5
q-18 -19 -19 -29t45 -10q-17 -8 -29 -13.5t-33 -13.5h-328q21 8 33 13.5t29 13.5h14q47 0 92 14q22 8 44 18.5t39 24.5q7 5 20.5 23t11.5 47q-11 46 -43.5 84.5t-73.5 72t-84 63t-76 58.5q-26 22 -43 42t-28 37.5t-16.5 31t-9.5 24.5q-8 21 -19.5 31.5t-38.5 10.5
q-54 -2 -104.5 -25.5t-80.5 -71.5q35 -46 87 -86t104 -81.5t94 -87.5t57 -103q1 -17 -3.5 -31t-11 -25t-13.5 -18.5t-10 -11.5q-8 -11 -14 -18.5t-6 -12.5q-1 -10 53 -10q-17 -8 -29.5 -13.5t-33.5 -13.5h-328q21 8 33.5 13.5t28.5 13.5h15q26 0 56 6t59 20q15 7 30.5 16.5
t28 22t20 28t6.5 34.5q-9 42 -37.5 77.5t-64.5 66t-75 57t-70 51.5q-38 30 -59.5 54.5t-32.5 43t-14.5 31.5t-4.5 20q-2 14 -2.5 23t-3.5 14q-5 9 -23 9q-11 0 -25 -2.5t-31 -8.5q1 8 2.5 13.5t6.5 13.5q86 25 172 45t174 38h31q-25 -12 -53.5 -24t-53.5 -28t-44 -38
t-25 -54z" />
    <glyph glyph-name="o" unicode="o" horiz-adv-x="904" 
d="M486 560q42 0 59 -7t23 -21.5t8.5 -36t15.5 -49.5q18 -37 46.5 -67.5t61.5 -57t67.5 -50.5t64.5 -48q22 -18 47 -38t46 -42.5t33.5 -47.5t10.5 -52q-3 -27 -25 -49.5t-53 -39.5t-65.5 -29t-61.5 -19q-71 -18 -142.5 -31.5t-144.5 -14.5q-42 0 -57.5 7.5t-20 22.5t-6 37.5
t-16.5 51.5q-19 37 -48.5 68t-63 57.5t-69 51t-66.5 48.5q-21 17 -46 37t-45 43t-31.5 48t-5.5 52t29.5 49t55 38.5t66.5 27.5t63 18q67 16 134 29t136 14zM361 513q-22 0 -53 -5.5t-66 -17.5q-36 -11 -69.5 -30.5t-46.5 -48.5q-14 -29 5.5 -66.5t73.5 -80.5
q37 -29 79.5 -57t84 -58t80 -62.5t67.5 -70.5q19 -26 27.5 -45.5t16 -32.5t19.5 -20t39 -7q20 0 44.5 4t50.5 11.5t51 18.5t46 24q24 15 32 33t5.5 37t-13.5 37.5t-25.5 35.5t-30.5 31t-27 24q-35 29 -80.5 58.5t-90 62.5t-82.5 71t-58 85q-8 17 -12.5 30t-11.5 21.5
t-19.5 13t-35.5 4.5z" />
    <glyph glyph-name="p" unicode="p" horiz-adv-x="790" 
d="M11 500q82 17 163.5 30.5t163.5 27.5h28q-42 -16 -69 -29t-44.5 -25t-28 -25.5t-19.5 -29.5q50 32 105 52.5t112 33.5q53 13 97 19t74 6q26 0 40.5 -3.5t20.5 -10t5.5 -17t-3.5 -24.5q-8 -33 2 -78t55 -96q17 -20 40.5 -42t44.5 -47t35.5 -52.5t13.5 -57.5
q-7 -32 -48.5 -48t-106.5 -16q-58 0 -104 10q-37 9 -95 31q21 -21 35 -38t20 -33t3.5 -33t-14.5 -38q-14 -23 -32.5 -38.5t-24.5 -21.5q-14 -14 -8 -21t62 -7q-12 -6 -21 -9.5t-24 -9.5h-363q15 6 24 9.5t21 9.5h19q20 -1 43.5 2t49.5 8q28 7 55 18q7 3 17 9t20.5 13.5
t20.5 18t17 22.5q14 46 -3 85t-51.5 74t-80 68t-88.5 66.5t-76.5 69t-43.5 76.5q-1 23 6 37.5t9 20.5q3 13 -2 18q-6 6 -29 6q-20 0 -54 -7q3 7 11 16zM196 420q2 -31 14.5 -55t31 -44.5t40.5 -38.5t43 -36q35 -29 61.5 -47t40.5 -27q24 -14 52.5 -27t60.5 -24t63 -17t63 -6
q38 0 59 10t22 30q1 25 -34 61.5t-87 83.5q-41 38 -77 77.5t-68 86.5q-14 20 -32 29.5t-51 9.5q-39 0 -85 -12q-18 -5 -50.5 -18t-66.5 -36z" />
    <glyph glyph-name="q" unicode="q" horiz-adv-x="852" 
d="M762 520q-69 -39 -103 -76.5t-42.5 -75t4.5 -74.5t39.5 -73.5t62 -73.5t71.5 -74.5t68.5 -75t53 -76t24.5 -78t-16 -80.5q-15 -23 -32.5 -37t-23.5 -20q-13 -14 -9 -20q6 -7 61 -7q-13 -6 -22 -10t-23 -9h-351q14 5 23 9t22 10h14q22 0 42 1.5t40 6.5q14 3 29 7.5
t32 12.5t37.5 21.5t34.5 34.5q10 23 11 55t-5.5 67.5t-18.5 72t-27 68.5t-31 58t-30 39q-1 -28 -12.5 -46.5t-28.5 -28.5q-18 -11 -41.5 -15.5t-51.5 -4.5q-61 0 -120 19t-115 42q-75 32 -148.5 74t-134.5 90q-40 31 -43.5 61t13 55t45.5 45t56 32q42 19 90 32.5t98 22.5
t101.5 14t100.5 5q41 0 59 -8q9 -5 11.5 -10.5t1.5 -13.5q35 7 74 15t84 17h26zM656 155q-27 21 -59 43.5t-60.5 48.5t-49.5 56.5t-27 68.5q0 20 4.5 34.5t6.5 25.5q1 6 1.5 4.5t0.5 -4.5t-2 -5t-5 2q-8 8 -22 11.5t-38 3.5q-27 0 -46 2.5t-36 4t-35 -1.5t-43 -14
q-27 -12 -46 -27t-27.5 -34t-4.5 -40t25 -45q45 -50 106 -83.5t124 -58.5q25 -10 42 -18.5t32.5 -15t33.5 -10.5t45 -4q43 0 64 13q20 14 16 43z" />
    <glyph glyph-name="r" unicode="r" horiz-adv-x="846" 
d="M496 560q-26 -12 -55.5 -24.5t-55.5 -29.5t-44.5 -41t-21.5 -58q35 40 87.5 69t111 47.5t118.5 27t111 9.5q29 1 37.5 -5.5t1.5 -19.5q-7 -12 -20 -26.5t-29 -30.5q-14 -15 -27 -27t-30 -22q-30 -20 -68 -20q-18 0 -39 6t-41 19t-32.5 19.5t-23.5 6.5q-22 0 -50 -15
q-15 -8 -36 -24.5t-39.5 -36.5t-32 -41t-13.5 -38q24 -25 54.5 -46.5t63.5 -41.5t65.5 -40.5t60.5 -44t49.5 -51t32.5 -62.5q2 -14 6.5 -26.5t9 -23t6.5 -20t-1 -16.5q-10 -21 0 -33q12 -13 76 -13q-17 -8 -29 -13.5t-33 -13.5h-500q21 8 33.5 13.5t28.5 13.5q38 0 74 4
t68 12q23 6 46.5 15.5t41.5 22.5q4 3 11 9t13 15t10.5 21t3.5 27q-10 44 -40 80.5t-68 68.5t-79 60t-73 54q-35 29 -54.5 53t-29 42t-12 29.5t-3.5 17.5q-3 11 -6 19.5t-10 13.5q-11 10 -39 10q-17 0 -37.5 -2.5t-44.5 -8.5q2 8 3 13.5t6 13.5q111 24 220.5 44t221.5 39h45z
" />
    <glyph glyph-name="s" unicode="s" horiz-adv-x="996" 
d="M817 560q-20 -10 -45.5 -22.5t-50.5 -28t-45.5 -34t-30 -40.5t-4 -47t32.5 -53h-39q-32 27 -51 49t-30.5 40t-18.5 32t-14 23q-15 20 -42.5 29t-81.5 9q-41 0 -85 -6t-86 -20q-85 -28 -92 -59q-6 -20 8 -38t41 -32q46 -23 96.5 -36.5t101.5 -25.5q58 -14 115 -26.5
t115 -24.5q53 -12 118.5 -26t128.5 -35.5t116.5 -52t82.5 -75.5q19 -29 4 -53t-45 -42.5t-64 -31t-53 -18.5q-84 -26 -175.5 -40t-182.5 -15q-49 0 -90.5 5.5t-81.5 16.5q-11 3 -23 5t-25 2q-25 0 -83 -19h-38q35 19 72.5 43t58.5 53.5t17.5 64t-49.5 75.5h38q43 -37 81 -75
t75 -77q24 -26 54.5 -38.5t87.5 -12.5q41 0 85.5 7t87.5 22q43 14 67 32t26 38q2 25 -23.5 46t-67.5 38q-76 30 -156.5 48.5t-160.5 36.5q-86 20 -172.5 41t-168.5 53q-51 20 -93 47t-54 57q-12 29 1.5 51t38 38.5t54 27.5t50.5 19q78 29 167.5 42t176.5 13q32 0 59 -4.5
t53 -12.5q34 -10 56 -10q10 0 19.5 1t20.5 4q11 2 29.5 7.5t47.5 14.5h39z" />
    <glyph glyph-name="t" unicode="t" horiz-adv-x="882" 
d="M573 560q-24 -11 -57.5 -25.5t-62 -34.5t-45.5 -47t-8 -64h281q4 -12 8 -20t12 -20h-282q36 -38 77 -72.5t78.5 -71.5t66.5 -79.5t41 -96.5q1 -25 -1.5 -42t5.5 -26q16 -17 67 -17q11 0 33 -2t46.5 -4t48 -2.5t36.5 2.5q56 11 90 34h52q-51 -35 -112 -54t-121 -30
t-119.5 -19t-119.5 -9q-58 0 -83 15q-6 3 1.5 10.5t19 16t23.5 17t15 15.5q6 14 9 34.5t6 48.5q-3 36 -25.5 68t-56.5 61t-76 55t-82.5 51t-76.5 48.5t-59 48.5h-191q-4 6 -6 9.5t-5 9.5q33 6 79 11.5t86 12.5q45 8 69 18.5t39.5 21.5t29 22.5t39.5 22.5q28 12 37.5 23
t16 21.5t17 20t39.5 18.5h121z" />
    <glyph glyph-name="u" unicode="u" horiz-adv-x="864" 
d="M681 560q-36 -18 -72.5 -35t-61.5 -39.5t-33.5 -54t10.5 -77.5q13 -31 42.5 -59.5t64 -54t69.5 -49t59 -43.5q35 -29 55.5 -52.5t30.5 -41.5t13 -30.5t4 -19.5q2 -13 2.5 -22t3.5 -14q6 -11 21 -11q25 0 58 13q-2 -8 -3 -13t-6 -13q-85 -26 -170.5 -46t-172.5 -38h-32
q25 12 53.5 24t53.5 28t44 38t25 54q-51 -48 -116 -75.5t-131 -44.5q-48 -12 -87 -18t-64 -6q-27 0 -29 8t9 25t23.5 38t15.5 47q1 13 -1 29t-11 34.5t-25.5 39.5t-43.5 44q-22 19 -51 39.5t-60 43t-61 47.5t-54 52t-38.5 57.5t-14.5 63.5q5 24 18 40.5t21 26.5q15 20 15 28
q-1 10 -54 10q17 8 29.5 13.5t34.5 13.5h229q-49 -24 -89.5 -47.5t-60.5 -51.5t-15.5 -64.5t45.5 -86.5q24 -30 55 -55.5t64 -50t65.5 -48.5t60.5 -51q24 -23 37 -42t20.5 -35t11.5 -28t9 -19q11 -15 23.5 -22.5t35.5 -7.5q32 0 83 20q25 11 51.5 29.5t40.5 47.5
q-19 31 -52.5 60t-72.5 58.5t-79 59t-71.5 62t-50 68t-14.5 76.5q4 15 11 27t14.5 22t14.5 17.5t10 12.5q6 10 -4 15.5t-41 6.5q17 8 29.5 13.5t33.5 13.5h223z" />
    <glyph glyph-name="v" unicode="v" horiz-adv-x="738" 
d="M728 530q-23 -2 -43.5 -6t-38.5 -10q-32 -11 -67 -29t-55 -44q-32 -42 -24.5 -80t34.5 -74q14 -18 29 -35t31 -34t30 -33t24 -32q42 -66 39 -111.5t-36 -78.5q-16 -16 -38 -29.5t-48 -26.5t-54.5 -25t-57.5 -25h-42q69 43 94 79.5t16 70.5t-46.5 67.5t-94.5 69.5
q-43 28 -100.5 56t-112.5 61q-27 17 -52.5 35.5t-47 39.5t-37.5 45t-25 52q-2 11 -0.5 19.5t3.5 15.5q2 8 4 13.5t4 10.5q7 16 6 28q0 2 -7 4.5t-24 7.5q22 10 36 16.5t36 14.5h334q-17 -6 -28 -10.5t-19.5 -8t-16 -7t-15.5 -7.5h-22q-29 0 -69 -14q-20 -8 -37 -17t-29 -21
q-13 -12 -18 -26.5t0 -31.5q16 -34 41 -62.5t55 -52.5t65 -45t71 -41t73 -39.5t72 -39.5q32 -20 61.5 -41t54.5 -45q-5 21 -17.5 42t-29.5 42q-18 23 -44 47t-46 47q-20 24 -36.5 48t-25.5 49.5t-8 52t16 53.5q13 19 25.5 29.5t31.5 24.5q7 5 21.5 14t17.5 12q2 2 -4 4
t-14.5 3t-15.5 2t-8 2t-1 1.5t-2.5 1t-9.5 1t-22 0.5q26 12 54.5 18.5t51.5 14.5h237q-17 -6 -28 -10.5t-19.5 -8t-16 -7t-15.5 -7.5z" />
    <glyph glyph-name="w" unicode="w" horiz-adv-x="773" 
d="M765 530q-16 -3 -39 -9.5t-47.5 -17t-46.5 -25.5t-35 -35q-15 -23 -17.5 -44.5t4 -43t21 -42t33.5 -39.5q19 -20 39.5 -38.5t40.5 -37.5q20 -18 37.5 -34.5t28.5 -33.5q40 -59 37.5 -100.5t-32.5 -72.5q-15 -15 -35 -28.5t-43 -25.5q-23 -11 -48.5 -22.5t-52.5 -23.5h-32
q52 30 86 55t46 52t-0.5 58.5t-54.5 73.5q-29 30 -64.5 55.5t-73.5 48.5q-32 20 -64.5 39t-62.5 39l16.5 -16.5t17.5 -16.5q15 -14 30.5 -28.5t30.5 -30.5q31 -30 54 -62.5t27 -67.5q5 -47 -18 -78.5t-59 -54.5q-17 -11 -36.5 -20t-39.5 -17t-38 -15t-34 -14h-31
q76 44 105.5 82t24.5 72.5t-37.5 67t-78.5 64.5q-47 32 -100 64.5t-101 67.5t-82.5 73t-43.5 83q0 18 6.5 33.5t17.5 29.5q4 7 9 12q12 18 2 27q20 10 33 16t35 14h210q-17 -6 -28 -10.5t-19.5 -8t-15.5 -7t-16 -7.5q-33 -3 -61 -14q-13 -5 -27.5 -13t-26.5 -19t-20 -24
t-8 -29q6 -34 23.5 -63t43.5 -54.5t58 -48t67 -44.5t71 -42.5t69 -42.5q29 -20 55 -40t46 -43q-14 45 -42 80t-60 68q-35 35 -69.5 72t-54.5 84q-13 15 -21.5 27t-12 23.5t-2.5 24t7 28.5q11 24 24 38q3 4 6 7.5t5 6.5t4 5.5t4 4.5q3 4 -2.5 5t-23.5 3q24 12 38 18.5
t36 14.5h236q-17 -6 -28 -10.5t-19.5 -8t-15.5 -7t-16 -7.5q-18 -1 -38 -5t-39.5 -11t-36.5 -17.5t-30 -23.5t-16 -28q-1 -31 13 -60t38.5 -55.5t57 -51.5t69.5 -48q36 -24 73.5 -46t72.5 -43q29 -18 54 -35.5t44 -35.5q-11 18 -25.5 35.5t-31.5 35.5q-22 22 -45.5 44
t-46.5 45t-42 47t-31.5 49t-15.5 51.5t6 54.5q11 21 27.5 37t31.5 28q18 14 28 25q3 3 2 4q-1 2 -5.5 2.5t-19.5 1.5q24 12 38 18.5t36 14.5h162q-17 -6 -28 -10.5t-19.5 -8t-15.5 -7t-16 -7.5z" />
    <glyph glyph-name="x" unicode="x" horiz-adv-x="799" 
d="M65 560h322q-22 -8 -35 -14t-30 -14q-30 0 -63 -11q-34 -11 -55 -28q-12 -9 -18.5 -23t0.5 -34q2 -6 6.5 -15.5t15.5 -22.5q9 -12 18.5 -21.5t20 -18.5t24.5 -18t32 -21q-5 23 -4 39t14 40q10 19 24.5 34t29.5 27t28 21t19 14q22 16 29 27q6 11 -21 11q17 8 30 14t36 14
h231q-22 -8 -35 -14t-30 -14q-20 -2 -46 -7t-54 -14q-51 -16 -96.5 -42t-76.5 -71q-11 -19 -15 -34.5t-2.5 -29.5t7.5 -29.5t15 -34.5q52 -27 109.5 -52.5t113.5 -54.5t107.5 -63.5t91.5 -79.5q20 -23 25.5 -41t3.5 -32.5t-7 -24t-6 -13.5q-2 -10 5 -15t27 -6
q-17 -8 -29.5 -14t-34.5 -14h-323q22 8 34.5 14t29.5 14q17 0 37.5 3.5t43.5 11.5q16 5 30 12t25 16q5 4 10.5 12t7 19.5t-3.5 25.5t-20 32q-23 25 -49.5 46t-55.5 38.5t-59 33t-59 31.5q12 -22 20 -39.5t11 -34.5t-1 -35t-17 -40q-10 -18 -23.5 -31.5t-26.5 -24t-23 -17.5
t-13 -10q-10 -9 -17.5 -17t-11.5 -16q-9 -15 20 -16q-17 -8 -29.5 -14t-34.5 -14h-224q22 8 34.5 14t29.5 14q17 2 38 6.5t44 12.5q49 16 96 42.5t77 70.5q12 25 13.5 50.5t-5.5 50.5t-19 49t-27 45q-39 19 -80 38.5t-81 42t-75.5 49.5t-63.5 62q-16 20 -20.5 36.5t-3 30
t5.5 23t5 14.5q2 11 -6.5 16t-31.5 5q17 8 30 14t35 14z" />
    <glyph glyph-name="y" unicode="y" horiz-adv-x="821" 
d="M100 516h310q-15 -5 -24 -9t-22 -10h-15q-17 0 -34.5 -2.5t-35.5 -7.5q-36 -9 -60 -25q-15 -10 -24.5 -24t-7.5 -31q10 -31 30.5 -65.5t48 -69.5t59 -68.5t63.5 -62t63 -51.5t57 -36q-29 43 -45.5 92t-17.5 99t16 97.5t54 86.5q16 11 32 21t33 21q17 9 20 14q6 6 1 9
q-6 3 -37 3q13 6 22 10t24 9h217q-15 -5 -24 -9t-22 -10q-16 -1 -30.5 -3t-28.5 -5q-29 -6 -74 -23q-9 -4 -29 -13.5t-43 -26.5q-33 -39 -44.5 -77t-7.5 -75t18.5 -73.5t33 -72.5t36.5 -72t28 -71.5t9 -71.5t-21 -72q-20 -23 -43.5 -39t-49.5 -27.5t-53 -20.5t-54 -17
q-63 -19 -117.5 -27t-83.5 -8q-22 0 -28 4.5t0 13.5q12 17 46 40q15 11 29 19.5t29 15.5q16 6 31.5 9.5t33.5 3.5q24 0 57 -12q21 -7 30 -7q11 0 26.5 4t33.5 12t37 23t28 38q9 25 7.5 41.5t-11.5 40.5q-32 18 -81 48t-104.5 68t-112 82t-103.5 90.5t-78.5 93t-36.5 89.5
q1 8 2 18t6 22q4 9 7 15t3 9q-2 8 -24 14q13 6 22 10t24 9z" />
    <glyph glyph-name="z" unicode="z" horiz-adv-x="942" 
d="M986 75q22 -29 23.5 -53.5t-10.5 -45.5t-34 -38.5t-47.5 -32t-50.5 -26t-42 -19.5h-703q22 8 34.5 14t29.5 14q55 24 104.5 47t83.5 53.5t47 74t-6 109.5q-20 70 -31 115.5t-0.5 80.5t47 66t111.5 73h-261q-43 0 -73.5 -2.5t-50.5 -7.5t-41 -13.5t-39 -22.5
q-25 -20 -34.5 -43t4.5 -52h-35q-14 27 -11.5 50t16 42t34.5 34.5t44.5 28t46.5 22t39 17.5h668q-23 -8 -35.5 -14t-29.5 -14q-76 -35 -127 -62.5t-77 -63t-26.5 -84.5t24.5 -126q20 -61 18.5 -102t-22 -71.5t-59.5 -56t-94 -55.5h290q92 0 143 14q26 6 51 18t44 29
q7 6 13 15.5t8.5 22t0 29t-14.5 36.5h30z" />
    <glyph glyph-name="braceleft" unicode="{" horiz-adv-x="974" 
d="M1099 -181q-13 -6 -22 -9.5t-24 -9.5q-45 3 -91 6.5t-91.5 10.5t-89 20t-82.5 36q-51 29 -73.5 63t-20.5 71q1 19 4.5 41t8.5 48t-3.5 46t-23.5 34q-40 39 -198 72q-90 20 -181 29t-183 12q-9 7 -15 11t-14 11q187 7 259 41q70 33 27 72q-15 14 -44.5 34t-67.5 46
t-57.5 50.5t-14.5 39.5q8 31 43 53t80 37.5t92.5 25.5t80.5 18q157 36 323 51t332 21q-15 -6 -24 -9.5t-22 -9.5q-106 -8 -209.5 -17.5t-206.5 -31.5q-158 -33 -187 -75q-11 -16 -8 -36.5t28 -46.5q24 -26 46.5 -48t36.5 -40q21 -28 14 -55.5t-45 -50.5q-34 -20 -71.5 -32.5
t-77.5 -20.5t-81 -13.5t-81 -11.5q130 -14 257.5 -31.5t253.5 -49.5q103 -26 165.5 -52.5t83.5 -53.5q14 -18 15.5 -40t-15.5 -48t-34.5 -47t-28.5 -37q-29 -41 16 -75q23 -17 76.5 -29t144.5 -20z" />
    <glyph glyph-name="bar" unicode="|" horiz-adv-x="1014" 
d="M252 800q-67 -27 -90 -59.5t-14 -68t43.5 -72.5t82.5 -72.5t104 -68t106.5 -58.5t91 -44.5t57.5 -26.5t63.5 -28.5t108.5 -50t131.5 -66.5t131 -77.5t109 -82.5t64.5 -82.5t-3 -77t-93 -65.5h-146q73 29 93 65.5t3 77t-64.5 82.5t-109 82.5t-131 77.5t-131.5 66.5
t-108.5 50t-63.5 28.5t-57.5 26.5t-91 44.5t-106 58.5t-103.5 68t-82.5 72.5t-43.5 72.5t14 68t90 59.5h145z" />
    <glyph glyph-name="braceright" unicode="}" horiz-adv-x="1025" 
d="M0 781q13 6 22.5 9.5t23.5 9.5q45 -3 91.5 -6t92 -10t89 -20t83.5 -36q50 -29 72 -63t20 -72q-1 -19 -4.5 -41t-8.5 -48t3 -46t24 -34q42 -39 197 -72q91 -19 182 -28.5t183 -12.5q8 -7 14 -11t15 -11q-96 -4 -160 -14t-99 -27q-70 -33 -27 -72q15 -14 44.5 -34t67.5 -46
t57.5 -50.5t15.5 -38.5q-8 -32 -43 -54t-80 -37t-92 -25.5t-80 -17.5q-158 -37 -324.5 -52t-332.5 -21q15 6 24 9.5t23 9.5q105 8 209 17.5t207 31.5q158 33 187 75q11 16 7.5 37t-28.5 47t-47.5 47.5t-36.5 39.5q-21 28 -14 55.5t45 50.5q34 21 72 33.5t77.5 20.5
t80.5 13.5t81 11.5q-130 14 -257.5 31t-254.5 49q-103 26 -165.5 52.5t-83.5 54.5q-14 18 -15.5 40t16.5 48t36 46.5t29 36.5q29 41 -16 75q-23 17 -76.5 29t-145.5 20z" />
    <glyph glyph-name="adieresis" unicode="&#xe4;" horiz-adv-x="1252" 
d="M905 -89q-93 -28 -186.5 -52t-189.5 -41q-56 -10 -103.5 -14t-85.5 -4q-59 0 -77 12t-11 36q8 24 27.5 55.5t33.5 70.5q9 25 16 46t18 40q16 25 42.5 49t68.5 45q69 35 144.5 59.5t151.5 48.5q-11 8 -17.5 13t-16.5 13q-131 101 -225 139q-93 37 -195 37q-80 0 -101 -25
q-11 -12 -7 -26.5t24 -30.5q16 -14 27 -22t28 -21q45 -33 39 -52q-4 -19 -52 -19q-23 0 -48.5 5t-52.5 14q-55 20 -97 53q-84 64 -23 116q30 27 98.5 40t168.5 13q149 0 271 -30q46 -11 89.5 -29t88.5 -42q29 -16 76 -48t110 -82q32 -25 63.5 -50t60 -52t52.5 -58t41 -69
q7 -24 6 -43.5t-6 -34.5t-11.5 -25t-9.5 -16q-13 -23 -9 -29q6 -7 24 -7q11 0 21 1t21 4q19 5 58.5 18t90.5 36q-8 -13 -14 -21t-20 -21q-54 -23 -112 -42.5t-117.5 -34.5t-119 -23.5t-117.5 -9.5q-30 -1 -38.5 5.5t1.5 19.5t39.5 34t61.5 51zM327 800q29 0 38 -6t2 -18
q-8 -11 -25 -25t-41 -31q-47 -34 -102 -57q-29 -11 -55.5 -17t-54.5 -6q-58 0 -81 23q-11 12 -6.5 26t28.5 31t61 31t83 25q47 12 86 18t67 6zM943 -41q15 44 6.5 80t-30 66.5t-51.5 57.5t-58 54q-68 -23 -112 -38.5t-62 -24.5q-66 -32 -88 -68q-11 -17 -14.5 -36.5
t-4.5 -40.5q-1 -27 0.5 -49t12.5 -39q10 -18 28.5 -27t53.5 -8q81 2 162 23t157 50zM768 800q28 0 36.5 -6t1.5 -18q-7 -11 -24.5 -25t-41.5 -31t-48 -31t-53 -26q-29 -11 -55.5 -17t-54.5 -6q-59 0 -82 23q-11 12 -6.5 26t28.5 31q25 17 61.5 31t83.5 25q47 12 86 18t68 6z
" />
    <glyph glyph-name="atilde" unicode="&#xe3;" horiz-adv-x="1343" 
d="M1003 -90q-93 -28 -186.5 -51.5t-189.5 -40.5q-55 -10 -102.5 -14t-85.5 -4q-59 0 -77.5 12t-11.5 35q7 24 26.5 55t34.5 70q10 24 17.5 45t19.5 39q16 25 43.5 48.5t70.5 44.5q71 35 147 59t152 47q-10 8 -16.5 13t-16.5 13q-66 51 -121.5 84.5t-103.5 52.5
q-93 37 -195 37q-80 0 -101 -24q-22 -26 18 -57q16 -13 27 -21t28 -21q44 -34 38 -52q-5 -18 -53 -18q-47 0 -100 19q-27 9 -51 22t-46 29q-81 64 -24 115q30 26 97.5 39.5t167.5 13.5q77 0 144 -7.5t129 -22.5q47 -11 91 -29t89 -42q29 -16 75.5 -47t109.5 -81
q31 -24 61.5 -48.5t58 -51t50.5 -57.5t39 -69q7 -24 5 -43t-7 -33.5t-11.5 -24.5t-9.5 -16q-6 -11 -9 -18t0 -10q6 -8 24 -8t41 5q20 5 59.5 18t90.5 36q-8 -13 -14.5 -21t-19.5 -20q-54 -23 -112 -42.5t-117 -34t-118.5 -23t-117.5 -9.5q-30 -1 -38.5 5.5t0.5 18.5
q10 13 39.5 34t61.5 51zM40 612h-40q7 25 27.5 46t50.5 39t66.5 33t74.5 26q77 22 146.5 33t118.5 11q51 0 69 -9q13 -7 23.5 -19.5t27.5 -32.5q18 -20 44 -30t52 -10q40 0 96 20q15 5 33 12.5t43 17.5t58 23t78 28h39q-44 -17 -78 -32t-61 -28.5t-48.5 -25t-40.5 -21.5
q-38 -20 -70 -35.5t-66 -26.5q-66 -22 -123 -22q-50 0 -108 14.5t-109 43.5q-26 16 -41.5 25t-25.5 13q-18 6 -45 6q-26 0 -54.5 -6t-57.5 -20q-6 -3 -16 -9t-21 -15.5t-22 -21.5t-20 -27zM1041 -43q16 43 9 78.5t-28 65.5t-50 57t-56 53q-138 -44 -177 -62q-34 -16 -56 -33
t-33 -34t-15.5 -36.5t-6.5 -39.5q-2 -26 -0.5 -48t11.5 -39q11 -17 29.5 -26t53.5 -9q80 2 161.5 23t157.5 50z" />
    <glyph glyph-name="aring" unicode="&#xe5;" horiz-adv-x="1194" 
d="M842 -96q-92 -26 -184.5 -48t-187.5 -39q-54 -9 -101 -13t-85 -4q-59 0 -78.5 11t-14.5 34t25 52t37 66q11 23 20.5 43.5t23.5 37.5q19 23 49.5 45.5t75.5 42.5q75 33 154 56.5t158 44.5q-9 8 -15 12.5t-16 12.5q-61 48 -117 80.5t-104 49.5q-96 36 -197 36
q-78 0 -99 -24q-20 -25 18 -54l55 -40q42 -31 34 -49q-6 -18 -54 -18q-47 0 -99 18q-51 18 -93 50q-80 60 -25 109q28 25 93.5 37.5t165.5 12.5q76 0 144.5 -7.5t131.5 -21.5q48 -11 93.5 -27.5t91.5 -39.5q29 -15 74.5 -45t104.5 -77q41 -32 72.5 -57.5t54 -50t36.5 -50
t20 -57.5q4 -23 1 -41t-9 -32t-13 -23.5t-10 -14.5q-7 -10 -10 -17t0 -10q6 -7 24 -7q10 0 20 1t21 4q20 5 59.5 17.5t91.5 32.5q-8 -11 -14.5 -19t-20.5 -20q-109 -42 -226.5 -71.5t-232.5 -31.5q-58 -1 -40 23q8 12 36.5 32t60.5 48zM882 -51q22 36 25 65t-10.5 56
t-42.5 56t-70 65q-71 -21 -117.5 -35.5t-66.5 -23.5q-70 -29 -98 -63q-14 -17 -20.5 -35t-9.5 -38q-3 -25 -3.5 -45.5t9.5 -37.5t29 -25.5t54 -7.5q81 2 162 22.5t159 46.5zM492 800q51 0 68 -9.5t12 -29.5t-21.5 -43t-39.5 -50q-23 -28 -45 -51t-55 -43q-32 -20 -70 -29.5
t-88 -9.5t-96 9.5t-84 29.5t-50.5 43t10.5 51q23 27 74.5 50t125.5 43q75 20 142 29.5t117 9.5zM385 752q-32 0 -70.5 -6t-80.5 -18q-42 -13 -71 -28t-44 -32q-26 -33 16 -60q41 -25 106 -25q32 0 58.5 6.5t50.5 18.5q25 13 42.5 28t31.5 32t21.5 32t4.5 28q-3 12 -18 18
t-47 6z" />
    <glyph glyph-name="eacute" unicode="&#xe9;" horiz-adv-x="1161" 
d="M252 222q70 -57 139.5 -115.5t144.5 -109.5q30 -21 59 -36t60.5 -25.5t68 -15.5t81.5 -5q61 0 122 9t116 26q56 17 99.5 47t54.5 72q14 -4 23.5 -6.5t23.5 -7.5q-7 -43 -34 -71.5t-63.5 -48t-76.5 -32.5t-72 -24q-115 -40 -244 -59t-255 -20q-55 0 -90 5.5t-57 17
t-34 28.5t-21 40q-9 22 -20 49t-26.5 57.5t-38.5 64.5t-56 72q-23 25 -54.5 57.5t-57 67t-38.5 69.5t1 65t51 48.5t83 28.5t94 13t85 2q103 -1 205.5 -19.5t201.5 -51.5q100 -34 195 -80t178 -112h-848zM201 263h568q-44 32 -79.5 53.5t-62.5 34.5q-42 20 -85 35.5t-89 26.5
q-89 22 -163 22q-56 0 -93.5 -11t-54.5 -34t-1.5 -54.5t60.5 -72.5zM792 800q-82 -21 -166.5 -43t-167 -49.5t-161 -64t-148.5 -86.5h-45q22 55 67 93.5t100 65.5t113 46.5t108 37.5h300z" />
    <glyph glyph-name="egrave" unicode="&#xe8;" horiz-adv-x="447" 
 />
    <glyph glyph-name="idieresis" unicode="&#xef;" horiz-adv-x="1117" 
d="M385 800q42 0 61.5 -6t21.5 -18t-11 -26.5t-37 -31.5t-53 -31t-67 -26t-75.5 -17.5t-77.5 -5.5q-42 0 -74 5.5t-52 17.5q-44 25 3 57q24 17 65.5 31.5t97.5 26.5q57 12 106.5 18t91.5 6zM652 506q26 -34 76.5 -73.5t108.5 -83t116.5 -91t101 -97t60.5 -101.5t-3 -105
q-9 -16 -19.5 -29.5t-20.5 -24.5t-17 -19t-10 -13q-11 -22 10 -32q23 -10 141 -10q-17 -8 -30 -13.5t-34 -13.5h-812q21 8 34 13.5t30 13.5q62 0 108 2.5t77 7.5q32 5 64 13t62 19q15 6 32 14t32.5 19t29 24t22.5 29q18 45 10 82.5t-30 69t-53 59t-60 53.5q-66 58 -119 93
t-82 52q-22 12 -41.5 20t-39.5 13q-38 9 -85 9q-26 0 -53.5 -2.5t-57.5 -8.5q-17 8 -28 13.5t-28 13.5q108 22 214.5 43t215.5 41h78zM1029 800q42 0 61 -6t21 -18t-11 -26.5t-38 -31.5q-24 -17 -52.5 -31t-66.5 -26t-75 -17.5t-79 -5.5t-74 5.5t-52 17.5q-43 25 3 57
q25 17 66.5 31.5t98.5 26.5q56 12 106.5 18t91.5 6z" />
    <glyph glyph-name="ntilde" unicode="&#xf1;" horiz-adv-x="1195" 
d="M403 352q-4 36 8 63t35 44.5t55 26.5t70 9q76 0 156 -27q40 -14 85 -36.5t101 -54.5q38 -23 89 -55.5t107 -80.5q33 -28 69 -57.5t62.5 -64t36.5 -75.5t-9 -91q-19 -32 -44 -54t-37 -33q-9 -10 -13.5 -17t-2.5 -12q3 -10 71 -10q-17 -8 -30 -13.5t-34 -13.5h-469
q21 8 34 13.5t30 13.5h20q33 0 64 3t59 11t56 18t53 24q5 3 13.5 9t19 14.5t21 20t19.5 26.5q19 48 10 87t-33 72t-57.5 61.5t-64.5 55.5q-55 48 -108.5 80.5t-96.5 53.5q-86 42 -163 42q-63 0 -95.5 -24t-30.5 -72q25 -20 57 -42.5t65 -49t62.5 -56t48.5 -62.5t24 -69.5
t-11 -76.5q-10 -17 -22 -31t-24 -24.5t-21 -18t-13 -11.5q-22 -23 -18 -31q4 -10 82 -10q-18 -8 -31 -13.5t-33 -13.5h-469q20 8 33 13.5t31 13.5h20q37 0 75.5 6t75.5 20q18 6 39 15.5t40.5 22t36.5 28t28 34.5q18 42 13 77t-24.5 65t-47.5 56.5t-55 51.5
q-68 64 -121.5 99.5t-74.5 49.5q-21 13 -37.5 22t-30.5 14q-29 9 -55 9q-31 0 -56 -11q-14 8 -23 13.5t-23 13.5q29 12 52.5 22t47 19t49.5 19t60 22h45q15 -21 30 -38t32 -33t38.5 -33t48.5 -39zM111 609h-33q6 25 25.5 47t47.5 40t62.5 33t70.5 26q72 23 134.5 34
t103.5 11q43 0 53 -10q8 -6 11 -19t12 -33q8 -20 28 -30.5t41 -10.5q17 0 37.5 5t46.5 15q13 5 30.5 13t41.5 18t56.5 23t77.5 29h32q-45 -17 -79 -32.5t-60 -29t-46.5 -25.5t-38.5 -22q-35 -20 -63 -35.5t-57 -26.5t-54 -17t-49 -6q-42 0 -90 15t-86 44q-20 16 -30.5 25.5
t-18.5 12.5q-14 7 -36 7q-21 0 -46.5 -6.5t-51.5 -20.5q-6 -3 -15.5 -9t-19.5 -15.5t-20 -22t-17 -27.5z" />
    <glyph glyph-name="odieresis" unicode="&#xf6;" horiz-adv-x="1179" 
d="M301 512q131 0 255.5 -32.5t243.5 -83.5q54 -23 108 -46.5t106.5 -50.5t101 -59t91.5 -71q23 -22 37.5 -45t18 -46.5t-5 -46.5t-31.5 -45q-32 -30 -72 -52t-83.5 -38.5t-89 -28t-88.5 -20.5q-94 -20 -188 -33t-189 -14q-61 0 -93 7.5t-48 22.5t-22 38t-13 53
q-12 51 -52 108t-101 121q-44 46 -85 92t-64 91q-22 46 -11 79.5t53 55.5t98 33t123 11zM320 800q27 0 34.5 -6t-0.5 -17q-8 -12 -26 -26t-42 -31t-48 -31t-52 -25t-53 -17t-51 -6q-55 0 -75 23q-22 24 24 56q24 17 60.5 31t81.5 26q92 23 147 23zM301 464q-63 1 -104 -23
t-9 -81q17 -29 57.5 -66t93.5 -83q32 -27 64.5 -55t62 -59t54 -65t39.5 -74q10 -26 16 -45.5t17 -33t31.5 -20.5t58.5 -7q28 0 61.5 3.5t69 11t72 18.5t70.5 26t61.5 35.5t42 46t11 55.5t-30.5 64q-40 50 -93.5 91t-113.5 74.5t-123 62t-123 54.5q-68 29 -139.5 49.5
t-145.5 20.5zM734 800q27 0 34 -6t-1 -17q-8 -12 -25.5 -26t-42.5 -31q-24 -17 -47.5 -31t-51.5 -25q-27 -11 -52.5 -17t-51.5 -6q-56 0 -76 23q-10 11 -5 25t30 31q24 17 60 31t82 26q92 23 147 23z" />
    <glyph glyph-name="otilde" unicode="&#xf5;" horiz-adv-x="1271" 
d="M404 502q131 0 256.5 -32t245.5 -83q53 -22 107 -45t105.5 -49.5t99.5 -58.5t90 -71q45 -42 52.5 -89t-38.5 -90q-33 -30 -73 -52t-84 -38t-89.5 -27.5t-88.5 -20.5q-92 -20 -186 -32.5t-189 -13.5q-60 0 -93 7t-49.5 22t-22 37.5t-12.5 52.5q-12 51 -50 107t-97 119
q-42 45 -82 90.5t-61 90.5q-43 89 40 133q40 21 96 32t123 11zM38 613h-38q7 25 27.5 46t49.5 39t65 32.5t73 25.5q75 22 142 33t113 11q47 0 64 -9q11 -7 19 -19.5t23 -32.5t39 -29.5t48 -9.5q36 0 92 19q14 5 32 12.5l42 17.5t57 23t77 28h37q-44 -17 -77.5 -32
t-60.5 -28.5t-48 -25t-39 -21.5q-38 -20 -69 -35t-63 -26q-62 -22 -116 -22q-47 0 -101.5 14.5t-100.5 43.5q-24 16 -38 25t-22 12q-17 7 -42 7q-51 0 -108 -26q-13 -6 -36.5 -24.5t-40.5 -48.5zM406 455q-63 0 -103 -23q-41 -24 -9 -80q17 -29 57 -65.5t91 -81.5
q31 -27 62.5 -54.5t59.5 -58t51.5 -64t37.5 -72.5q10 -25 16 -44.5t17.5 -33t32 -20.5t58.5 -7q28 0 61.5 3.5t69 11t71.5 18.5t70 25q34 15 62.5 35t43 45.5t12.5 55.5t-28 63q-39 50 -91.5 90t-112 73.5t-122 61t-120.5 52.5q-69 29 -141 49t-146 21z" />
    <glyph glyph-name="udieresis" unicode="&#xfc;" horiz-adv-x="1341" 
d="M881 492q52 -54 111.5 -101.5t118.5 -95t114.5 -98.5t99.5 -112q17 -29 21 -52.5t2 -41.5t-7.5 -30t-8.5 -18q-5 -14 -8 -23t-1 -14q6 -10 27 -10q16 0 38 3t48 10q-4 -8 -7.5 -13t-10.5 -13q-112 -23 -222.5 -43t-222.5 -40h-46q56 21 93 38t62.5 33t42 33t31.5 38
q-85 -41 -173.5 -69.5t-179.5 -48.5q-59 -12 -108 -18t-84 -6q-40 0 -52.5 8t-6.5 25q5 16 20 37t29 47q7 13 13.5 28.5t9.5 33.5t1 38.5t-12 44.5q-26 48 -63.5 88.5t-80.5 76.5t-88.5 69t-87.5 66q-30 23 -52 39.5t-39 26.5q-33 17 -70 28q-38 9 -110 9q-8 8 -12 13.5
t-10 13.5h327q33 -40 74.5 -75t86 -68.5t89.5 -66.5t85 -69.5t73 -78t54 -91.5q6 -24 6.5 -43.5t-1 -34.5t-2 -26.5t3.5 -18.5q8 -15 26 -22.5t50 -7.5q45 0 123 20q38 10 87 28.5t94 46.5q3 42 -12.5 81t-43.5 74t-64 66.5t-74.5 60t-74.5 53t-64 46.5q-36 28 -64 47.5
t-53 29.5q-47 20 -141 22q-7 8 -11.5 13.5t-10.5 13.5h318zM552 800q24 0 28.5 -6t-6.5 -17q-11 -12 -29.5 -26t-42.5 -31t-46.5 -31t-48.5 -25t-47.5 -17t-44.5 -6q-49 0 -64 23q-16 24 30 56q24 17 59 31t77 26q43 11 77.5 17t57.5 6zM912 800q23 0 27.5 -6t-6.5 -17
q-11 -12 -29.5 -26t-42.5 -31q-25 -17 -47 -31t-48 -25q-25 -11 -47.5 -17t-45.5 -6t-39 6t-24 17t-1.5 25t30.5 31q25 17 59.5 31t78.5 26q43 11 77.5 17t57.5 6z" />
    <glyph glyph-name="cent" unicode="&#xa2;" horiz-adv-x="1164" 
d="M1224 227q36 -56 17 -98.5t-86 -72.5q-52 -24 -126.5 -36t-162.5 -12q-108 0 -220 21q-38 -51 -90.5 -86t-111.5 -60.5t-121 -45t-118 -37.5h-95q57 19 122.5 39t128.5 48t116.5 67t86.5 96q-62 23 -116 45.5t-99 45.5q-64 32 -128 68t-112 78q-15 13 -34 30.5t-36 38
t-28 42.5t-10 43t17.5 40t55.5 35q86 35 172 47.5t175 14.5q26 0 82 -3q39 49 91.5 83.5t111 60t119.5 44.5t117 37h97q-56 -18 -119 -37.5t-123 -46t-113 -63t-89 -89.5q71 -13 123 -25.5t84 -25.5q85 -32 118 -67q23 -24 6 -37q-16 -13 -79 -13q-76 0 -141 22
q-19 7 -40.5 19t-41.5 29t-52 38q-3 -51 10.5 -97t33 -90t38 -89t26.5 -94q48 -11 85 -18t66 -12q21 -2 45 -3.5t52 -1.5q81 0 146 14q64 15 85 36q10 10 15.5 31.5t0.5 54.5q15 -2 25 -4t24 -4zM577 169q-14 44 -35 88t-38.5 88t-26 90t3.5 95q-21 3 -42 5t-42 2
q-69 0 -118.5 -11t-74.5 -33q-69 -58 57 -157q29 -22 61.5 -42t67.5 -39q35 -18 82.5 -39.5t104.5 -46.5z" />
    <glyph glyph-name="sterling" unicode="&#xa3;" horiz-adv-x="1226" 
d="M796 285h-293q23 -17 38 -28.5t25 -19.5q42 -34 71 -64.5t43 -59.5t13.5 -61t-30.5 -69q106 -23 159.5 -35t67.5 -14q52 -9 109 -9q48 0 91.5 6.5t81.5 20.5t65.5 35.5t34.5 51.5q13 -2 21 -3.5t21 -3.5q-11 -42 -37 -70.5t-59.5 -47.5t-71 -32t-71.5 -23
q-78 -25 -164 -41t-172 -18q-38 -1 -61.5 4t-34.5 13q-6 4 -9.5 12.5t-10 20.5t-18 28t-32.5 36q-52 -29 -114 -50.5t-119 -35.5q-58 -14 -104.5 -21t-76.5 -7q-29 0 -36.5 6t0.5 19q9 12 31 28.5t50 38.5q31 23 58.5 43t59.5 36t66 23.5t75 7.5h20.5t22.5 -1t25.5 -1.5
t27.5 -2.5q2 9 2.5 17t-0.5 15t-2 12.5t-3 9.5q-16 38 -43.5 70t-61.5 60t-71.5 53.5t-72.5 50.5h-220q-26 20 -44 34t-43 34h220q-75 53 -112 88t-50 53q-65 89 39 158q65 44 142 68.5t155 41.5q73 16 148 26.5t150 11.5q71 1 94 -11.5t13 -36.5q-10 -25 -21.5 -49
t-28.5 -48q-16 -24 -46 -40q-33 -18 -64 -18q-21 0 -38.5 6.5t-27.5 20.5q-4 6 -1.5 20t19.5 35q18 21 31.5 36.5t13.5 25.5q0 20 -61 20q-45 0 -104 -11t-120 -33q-30 -11 -58 -26t-48.5 -34.5t-30.5 -43t-4 -51.5q6 -26 30.5 -59t74.5 -74q32 -26 58 -45.5t43 -30.5h292
q25 -20 43.5 -34t44.5 -34zM521 -61q-18 10 -39 15q-23 5 -45 5q-26 0 -48 -4.5t-42 -12.5q-20 -9 -37.5 -20t-34.5 -25q-16 -13 -26.5 -23t-12.5 -18q-5 -15 23 -15q19 0 48 5.5t66 16.5q36 11 76.5 30t71.5 46z" />
    <glyph glyph-name="bullet" unicode="&#x2022;" horiz-adv-x="1032" 
d="M691 600q32 0 45.5 -5.5t19 -17t7 -28t10.5 -37.5q14 -35 41.5 -64t60 -54.5t66.5 -48.5t62 -45q23 -18 50.5 -45t42 -56.5t7.5 -58.5t-53 -52q-39 -20 -83 -36t-90.5 -27.5t-93.5 -18t-92 -6.5q-32 0 -45.5 5.5t-18.5 16.5t-6.5 28t-10.5 38q-14 34 -41.5 63.5t-60 55
t-66.5 48.5t-62 45q-23 18 -50.5 45t-42 56.5t-8 58.5t52.5 52q39 20 83 36t90.5 27.5t93.5 18t92 6.5z" />
    <glyph glyph-name="paragraph" unicode="&#xb6;" horiz-adv-x="1282" 
d="M1071 769q-82 -53 -118 -99t-38.5 -88.5t23.5 -82.5t68.5 -80t95.5 -81.5t105 -86.5q88 -76 130 -135t35.5 -111t-63 -101t-165.5 -104h-79q109 55 165.5 104t63 101t-35.5 111t-130 135q-52 45 -105 86.5t-95.5 81.5t-68.5 80t-23.5 82.5t38.5 88.5t118 99h-206
q-82 -53 -118 -99t-38 -88.5t23.5 -82.5t68 -80t96 -81.5t105.5 -86.5q88 -76 129.5 -135t35 -111t-63 -101t-165.5 -104h-80q34 17 68.5 33t65.5 33.5t56 38.5t38.5 47.5t14 60.5t-16.5 77q-17 44 -57.5 84.5t-89 77t-97.5 69t-84 59.5q-88 2 -174.5 7.5t-171.5 20.5
q-66 12 -124 30t-106 43t-75 52.5t-26 57.5q1 31 28.5 56t72.5 45q72 30 148 49t154 31q85 14 170.5 21t172.5 7h544q-24 -9 -38.5 -15t-34.5 -16h-146z" />
    <glyph glyph-name="germandbls" unicode="&#xdf;" horiz-adv-x="1280" 
d="M117 -191q18 8 29.5 12.5t27.5 12.5q76 3 125 15q25 5 48.5 13t44.5 18q10 5 23 13t25.5 18.5t24 24t19.5 30.5q12 51 -8 101t-60.5 97t-94 91t-107.5 84.5t-102 76t-77 66.5q-29 30 -34.5 58t4.5 53t32.5 46.5t50 39t56.5 30t53 19.5q106 32 219.5 52t227.5 20
q45 0 74.5 -4t47 -12t24 -20t6.5 -28t-2.5 -34t-4.5 -38.5t-2.5 -43t2.5 -46.5q5 -38 12 -69t1 -57q-9 -38 -81 -67q91 -14 181 -37.5t173 -59.5q38 -17 76.5 -34.5t74 -39.5t67.5 -48t56 -59q20 -27 22 -50.5t-7.5 -44t-28.5 -38t-41.5 -32.5t-45.5 -26.5t-42 -20.5
q-48 -23 -103.5 -40t-113.5 -28t-117.5 -17t-116.5 -6q-49 0 -66.5 8t-11.5 25t23.5 37t41.5 43q15 14 28.5 25.5t30.5 19.5t34.5 12t37.5 4q44 0 61 -15q18 -16 -5 -41q-6 -5 -13.5 -11t-17.5 -12l-24.5 -14t-16.5 -10q-20 -13 -22 -22q-1 -10 27 -10q34 0 80 9t97 28
q33 12 62.5 28.5t51 36t32.5 41t6 44.5q-9 42 -39 77t-69.5 63.5t-84.5 50.5t-84 39q-87 38 -179.5 63t-188.5 29l-25 20t-24 20q60 0 92 11t40 33q4 11 1 25.5t-9 32.5t-12.5 39.5t-9.5 47.5q-2 23 1 43t7.5 37t8 30.5t3.5 24.5q-2 21 -20.5 31.5t-68.5 10.5
q-45 0 -103.5 -11t-116.5 -34q-29 -11 -57.5 -27.5t-47 -39t-24.5 -50t10 -60.5q31 -53 80 -101t103.5 -92.5t108.5 -86.5t94.5 -83.5t62.5 -83.5t12.5 -86t-56.5 -91t-144 -99h-335z" />
    <glyph glyph-name="copyright" unicode="&#xa9;" horiz-adv-x="1302" 
d="M290 792q39 1 52.5 -9t18.5 -29q3 -10 5 -22t7 -26t14 -29.5t26 -33.5q41 -44 92 -79t97 -72q18 -14 38.5 -30.5t37 -35.5t25.5 -40t5 -43q-5 -23 -25 -40.5t-46.5 -31.5t-55.5 -23.5t-52 -15.5q-59 -15 -118.5 -27t-120.5 -13q-40 0 -53 10t-17 30q-2 10 -4.5 22t-8 26
t-15 30t-25.5 33q-41 44 -91.5 78.5t-96.5 70.5q-18 14 -38.5 31t-37 36t-25.5 40t-4 44q5 22 25 40t47 32t56 23.5t53 15.5q58 14 116.5 25.5t118.5 12.5zM231 767q-50 -1 -98.5 -11.5t-96.5 -24.5q-27 -8 -51 -19t-42.5 -24.5t-29 -28t-10.5 -29.5q0 -23 9.5 -42t25 -36
t33.5 -32t35 -28q43 -33 90.5 -65.5t88.5 -70.5q35 -32 51 -57.5t29 -43.5q13 -19 30.5 -28t53.5 -9q51 1 101 11.5t98 25.5q54 16 91 42.5t40 58.5q2 33 -27.5 67t-76.5 69q-45 34 -91.5 67t-88.5 71q-35 32 -50.5 57.5t-28.5 43.5q-14 18 -31.5 27t-53.5 9zM297 685
q-9 -35 7.5 -59t57.5 -59h-17q-35 25 -60 43.5t-46 31.5q-22 12 -42.5 18.5t-44.5 6.5q-38 0 -63 -15q-13 -7 -20.5 -16.5t-8.5 -21.5q-2 -20 21 -48q24 -30 69 -64q45 -35 91.5 -68t94.5 -64q33 -22 61.5 -32.5t60.5 -10.5q21 0 40.5 4.5t33.5 13t21.5 21.5t4.5 30
q7 -2 11.5 -4t11.5 -4q-3 -26 -17 -43t-34.5 -26.5t-44 -13t-44.5 -3.5q-43 1 -76.5 14t-76.5 41q-50 32 -99 64.5t-96 68.5q-54 40 -77 74.5t-7 63.5q8 15 23.5 25.5t36 18t44 11t47.5 3.5q21 0 33 -3q6 -1 17 -4.5t28 -8.5q9 -4 16 -4q8 0 12 4q3 2 5.5 5.5t7.5 9.5h18z
" />
    <glyph glyph-name="trademark" unicode="&#x2122;" horiz-adv-x="1177" 
d="M41 803h233q-20 -9 -48.5 -21.5t-52.5 -30.5t-37 -41.5t-2 -55.5h-11q-11 27 -5.5 46.5t11.5 32.5t4.5 19.5t-17.5 6.5h-24q-34 -35 -42.5 -65t0.5 -56.5t32.5 -51t53 -48t62.5 -47t62 -49t49.5 -54t25.5 -60.5q0 -15 -6.5 -28t-14.5 -23t-16.5 -17t-13.5 -11
q-9 -8 -11 -12.5t6 -6.5q-16 -8 -28 -13.5t-33 -13.5h-120q21 8 33 13.5t28 13.5q15 2 31 7.5t30 13.5q7 4 17.5 10.5t20 16.5t16.5 22.5t7 27.5q-5 32 -25.5 60.5t-49 54t-61.5 49t-63 47t-53.5 48t-32.5 51t-0.5 56.5t42.5 65h-24q-15 0 -35 -6t-38 -18q-9 -6 -18.5 -13.5
t-16 -18t-9.5 -22.5t1 -27h-11q-8 33 7.5 56.5t41 41t55 30t50.5 21.5zM395 803q-44 -24 -73.5 -46t-39.5 -46t1.5 -53t50.5 -67q31 -32 68 -56.5t74.5 -48.5t74 -49.5t67.5 -58.5q-17 30 -39.5 54t-47 45.5t-48.5 43t-44 48.5q-38 49 -40 84t19.5 61t61.5 46.5t87 42.5h90
q-22 -8 -34 -13.5t-28 -13.5q-10 -1 -20 -2.5t-19 -5.5q-10 -4 -21.5 -10t-22.5 -14t-26.5 -25.5t-15.5 -43.5q8 -40 32 -70t55.5 -55t66.5 -47.5t66 -47.5t53.5 -55.5t28.5 -71.5q0 -16 -6.5 -29t-15 -23t-17 -16.5t-12.5 -10.5q-9 -8 -10.5 -12.5t7.5 -6.5
q-16 -8 -28 -13.5t-33 -13.5h-128q21 8 33 13.5t28 13.5q21 1 42 9q11 4 22.5 10t22.5 14t25.5 24t15.5 40q-7 41 -32 72.5t-58.5 57.5t-71 50t-68.5 51t-51 59.5t-19 75.5q-12 -41 5.5 -75t47 -63t63 -55t54.5 -52q41 -51 47 -86.5t-14 -62.5t-60.5 -49.5t-91.5 -46.5h-10
q64 36 89.5 68t22.5 61t-28 56.5t-62.5 55t-81 55t-82.5 57t-68.5 61.5t-38.5 69q3 -43 24.5 -74.5t52.5 -57.5t67.5 -49t69 -48.5t56.5 -56.5t31 -72q0 -13 -4.5 -23.5t-10.5 -18.5t-12 -14l-10 -10q-8 -8 -15 -13.5t-12 -10.5q-8 -8 4 -8h11q-15 -8 -27.5 -13.5
t-33.5 -13.5h-98q21 8 33 13.5t28 13.5q17 0 38 8q22 7 44 23q6 4 13.5 10t14 14t11.5 19t6 24q-7 41 -29 71t-52.5 55.5t-65.5 48t-66.5 47t-55.5 54.5t-33 70q-1 14 3.5 25.5t10.5 20.5t12.5 15t10.5 10q8 8 14.5 13.5t10.5 9.5q8 8 -10 8q16 8 28.5 13.5t33.5 13.5h92z
" />
    <glyph glyph-name="Oslash" unicode="&#xd8;" horiz-adv-x="1219" 
d="M747 659q88 49 182 80.5t191 60.5q-17 -12 -26 -20.5t-18 -20.5q-81 -30 -157 -61.5t-146 -83.5q34 -47 76 -86.5t87.5 -75.5t92 -69.5t89.5 -67.5q30 -23 62.5 -49.5t60.5 -56t46 -61.5t19 -66q1 -37 -21 -66t-55.5 -51t-72 -38.5t-71.5 -27.5q-81 -28 -171.5 -44.5
t-181.5 -17.5q-46 0 -74 6t-42 19q-14 12 -23.5 33t-30.5 51q-90 -52 -185.5 -84.5t-193.5 -61.5q17 12 25.5 20.5t17.5 20.5q41 16 81.5 31t79.5 33t76.5 39t72.5 49q-23 30 -57.5 66t-88.5 79q-55 44 -113 85t-106 76q-28 20 -59 46.5t-57 56.5t-42.5 62t-13.5 64
q3 36 27.5 64t59 49.5t74 37t72.5 26.5q80 26 168.5 42.5t178.5 18.5q45 0 73 -6.5t42 -18.5q15 -13 24.5 -33t27.5 -49zM616 551q-21 21 -34 39.5t-22 33t-15 26t-13 19.5q-14 17 -35 25t-57 8q-27 0 -58.5 -4.5t-63.5 -14t-62.5 -24t-54.5 -33.5q-29 -22 -38 -46t-5 -47.5
t18 -46.5t33 -43.5t38.5 -38.5t34.5 -31q36 -33 78.5 -63.5t87 -61t88.5 -61.5t85 -65q3 41 0.5 77.5t-7.5 70.5t-10.5 67t-7.5 66.5t2 70t18 77.5zM681 489q-9 -59 -2 -111t15 -103t11 -103.5t-13 -112.5q23 -22 37.5 -40.5t24.5 -33.5t17 -27t15 -20q14 -17 37 -25t61 -8
q27 0 59 4.5t63.5 14.5t59.5 24t48 34q24 23 30.5 47.5t0 49t-22 48.5t-36 45.5t-43 41t-41.5 34.5q-75 61 -159 119.5t-162 121.5z" />
    <glyph glyph-name="infinity" unicode="&#x221e;" horiz-adv-x="1358" 
d="M472 469q-30 47 -22.5 88.5t35 75t68.5 57.5t79 38q78 27 157.5 48.5t162.5 23.5q30 1 32.5 -8t-7.5 -27t-24.5 -44t-17.5 -60q-4 -39 10.5 -75t40 -69t59.5 -63t69.5 -57t69.5 -51t60 -44q22 -17 53.5 -43t62.5 -57t56.5 -65.5t34.5 -68.5t-3.5 -66.5t-56.5 -59.5
q-46 -28 -96 -53t-102.5 -44t-106.5 -31t-108 -14q-18 -1 -21 4.5t4 17t20.5 28t27.5 37.5q26 40 23 75.5t-22 66.5t-48 59t-56 54q21 -37 22.5 -69t-11 -58.5t-36 -48.5t-51.5 -38q-29 -16 -59.5 -28t-60 -20.5t-56.5 -12.5t-48 -4q-27 0 -37.5 8t-14.5 24t-6.5 38.5
t-14.5 52.5q-21 52 -59.5 96t-85 82t-95.5 72.5t-91 67.5q-19 15 -46.5 36.5t-55.5 47.5t-52.5 55.5t-37 59.5t-9 60.5t30.5 58.5q27 27 60.5 48.5t71 37.5t77 24.5t77.5 10.5q32 1 38.5 -13t3.5 -41q-2 -13 -3.5 -33.5t7.5 -48t33.5 -62t74.5 -76.5zM547 377
q-63 45 -123.5 91t-113.5 103q-29 31 -52.5 46.5t-58.5 15.5q-21 0 -44 -6.5t-42.5 -18t-33.5 -28t-17 -36.5q-5 -38 12.5 -71.5t46 -63.5t62 -56t60.5 -48q76 -60 157 -120t149 -133q21 -24 35.5 -41.5t26.5 -29.5t24 -18t29 -6q18 0 39.5 6t41 19t34.5 31.5t19 44.5
q-3 50 -30 94.5t-65.5 84t-80.5 74.5t-75 66zM836 227q38 -27 76 -53.5t72.5 -56.5t64.5 -64.5t52 -76.5q9 -16 16 -28t16 -20t21 -12t29 -4q24 0 54.5 7t60.5 20.5t55 33t37 45.5q14 28 10.5 56.5t-18.5 55t-38.5 51.5t-49.5 47t-51 41t-43 33q-41 32 -85.5 64t-87 67
t-80 74t-63.5 85q-16 28 -22.5 49.5t-12 36t-14 22t-29.5 7.5q-26 0 -63 -10.5t-73 -31.5q-18 -11 -34.5 -24.5t-29 -30t-19 -36.5t-3.5 -43q12 -47 40 -88.5t64 -79t75.5 -71t72.5 -65.5z" />
    <glyph glyph-name="yen" unicode="&#xa5;" horiz-adv-x="1257" 
d="M882 113h434q12 -16 18.5 -26.5t12.5 -26.5h-433q10 -24 11.5 -40t-6.5 -40q-6 -21 -17.5 -37.5t-23.5 -30t-23.5 -23t-17.5 -15.5q-17 -16 -14 -28q4 -8 16.5 -12t37.5 -4h41q-20 -9 -34 -15t-38 -15h-523q23 9 37.5 15t34.5 15h32q36 0 72.5 5t72.5 14q25 8 51 18
t49 24q6 4 16 11t21 18.5t21 26t16 33.5q7 24 5.5 40t-11.5 40h-431q-7 16 -13 26.5t-19 26.5h432q-12 16 -23.5 28.5t-24 24.5t-27 25t-33.5 29q-14 8 -24 13t-24 13h-416q-20 17 -34.5 27t-35.5 27h384q-33 17 -78 38t-93.5 46.5t-96.5 55t-85.5 64t-61.5 75t-24 87.5
q3 16 9 29.5t12 24t11 18.5t6 13q1 10 -10.5 15t-39.5 6q19 8 32 14t35 14h450q-23 -8 -36 -14t-32 -14q-80 -3 -133 -17q-25 -7 -44 -14t-31 -15q-9 -6 -19.5 -16.5t-16.5 -26.5q-13 -46 6 -88t56.5 -79.5t88.5 -70t102.5 -60t97.5 -49t74 -36.5q-41 60 -65.5 104.5
t-27.5 85t18.5 83t73.5 99.5q26 18 49.5 32t37.5 23q25 15 32 30q4 10 -39 13q-5 0 -10.5 0.5t-12.5 1.5q19 8 32 14t36 14h351q-22 -8 -35 -14t-32 -14q-61 0 -123 -17q-48 -13 -107 -37.5t-107 -59.5q-41 -50 -60 -93t-17.5 -85t24 -85.5t64.5 -94.5h393q11 -8 19.5 -14.5
t16.5 -12.5t16 -12.5t18 -14.5h-426q2 -4 4 -6t4 -6q22 -18 39.5 -32.5t32 -28t27 -28t26.5 -32.5z" />
    <glyph glyph-name="mu" unicode="&#xb5;" horiz-adv-x="1227" 
d="M225 800h178q-45 -23 -89 -48.5t-79 -54.5t-56 -61.5t-21 -68.5t25.5 -76t84.5 -83q61 -54 115 -90t89 -56q51 -30 111 -48q30 -9 55.5 -14t48.5 -5q64 0 98.5 24.5t33.5 74.5q-99 77 -161 141.5t-71.5 124t42.5 117.5t182 123h179q-121 -59 -175.5 -113.5t-53 -111
t55 -119t149.5 -138.5q48 -38 81 -61.5t51 -34.5q14 -9 29 -16t29 -12q15 -5 27.5 -7.5t22.5 -2.5q28 0 30 17q2 23 -53 75h45q54 -45 73.5 -77.5t9.5 -52.5q-11 -21 -39.5 -31t-72.5 -10q-43 0 -83 10.5t-83 32.5q-31 15 -67.5 39.5t-82.5 57.5q0 -38 -15.5 -64.5
t-41.5 -43.5q-52 -32 -138 -32q-57 0 -111 15q-20 6 -47 18t-65 29q11 -11 19 -19.5t13 -13.5q12 -15 29 -33t30.5 -40t20.5 -48t1 -55q-5 -23 -21.5 -42t-39.5 -35q-26 -18 -61 -32.5t-77 -25.5q-83 -23 -127 -23q-37 0 -14 21q11 11 33 25.5t49 33.5q12 9 29 20.5t34 27
t32.5 34t25.5 40.5q14 29 11.5 48t-6.5 28q-14 38 -43.5 71t-62.5 61q-2 2 -19 15.5t-51 39.5q-67 51 -122.5 98t-92 91t-50 86.5t4 85t69.5 85.5t146 89z" />
    <glyph glyph-name="Euro" unicode="&#x20ac;" horiz-adv-x="1294" 
d="M938 340h-589q17 -14 35.5 -29t37.5 -29h567q14 -17 23.5 -28.5t23.5 -27.5h-541q34 -28 68 -55t65 -57t58 -64t46 -74q14 -29 21.5 -51t18.5 -36.5t31 -21.5t59 -7q76 0 151.5 12.5t147.5 36.5q22 7 47.5 17.5t51.5 24.5t50.5 31t44.5 37q10 -4 16.5 -6.5t15.5 -7.5
q-57 -52 -126 -85t-143 -53q-106 -28 -211.5 -47t-214.5 -20q-59 0 -86 8.5t-37 25.5t-11 42.5t-8 59.5q-10 49 -37.5 89.5t-63.5 75.5t-76.5 65.5t-77.5 59.5h-103q-14 16 -23.5 27.5t-23.5 28.5h76q-5 3 -7.5 5l-7.5 6q-14 11 -29 22.5t-31 24.5h-101q-14 17 -23.5 28
t-21.5 28h86q-45 37 -57 77.5t1 78.5t47 70t81 52q141 59 295.5 92t306.5 34q43 0 76 -3.5t58 -11.5t44.5 -20t36.5 -28q-54 -32 -83 -57t-38.5 -49t-3 -49t23.5 -57h-40q-13 22 -21 48.5t-16 53.5t-17.5 51.5t-25.5 42.5t-40 27t-60 5q-45 -6 -97 -13.5t-104 -20.5
t-102 -33t-90 -51q-59 -45 -54 -105.5t80 -133.5h606q13 -17 22 -28t23 -28z" />
    <glyph glyph-name="minus" unicode="&#x2212;" horiz-adv-x="1049" 
d="M170 800h385q-98 -65 -137 -122t-32 -115.5t52.5 -122t116.5 -140.5t116.5 -140.5t52.5 -122t-32 -115.5t-137 -122h-385q98 65 137 122t32.5 115.5t-52.5 122t-117 140.5t-116.5 140.5t-52.5 122t32 115.5t137 122z" />
    </font>
</defs>
</svg>
